<svg width="34" height="34" viewBox="0 0 34 34" fill="none" xmlns="http://www.w3.org/2000/svg">
<g clip-path="url(#clip0)">
<path d="M18.994 17C18.9799 16.4343 19.4324 15.9818 19.9981 15.9959C20.5497 15.9959 21.0022 16.4485 21.0022 17C21.0022 19.7577 18.7607 21.9993 16.003 21.9993L10.9967 21.9993C8.23895 21.9993 5.99742 19.7577 5.99742 17C5.99742 14.2423 8.23895 12.0008 10.9967 12.0008H13.1038C12.5169 12.5735 12.029 13.2453 11.6755 13.9948L11.0037 14.0019C9.34203 13.9948 7.99853 15.3383 8.0056 17C7.99853 18.6617 9.34203 20.0052 11.0037 19.9981L15.9959 19.9981C17.6576 20.0052 19.0011 18.6617 18.994 17ZM14.0019 18.0041C13.4503 18.0041 12.9978 17.5516 12.9978 17C12.9978 14.2423 15.2393 12.0008 17.997 12.0008L23.0033 12.0008C25.7611 12.0008 28.0026 14.2423 28.0026 17C28.0026 19.7577 25.7611 21.9993 23.0033 21.9993L20.8962 21.9993C21.4831 21.4265 21.971 20.7547 22.3316 19.9981H22.9963C24.658 20.0052 26.0015 18.6617 25.9944 17C26.0015 15.3383 24.658 13.9948 22.9963 14.0019L18.0041 14.0019C16.3424 13.9948 14.9989 15.3383 15.006 17C15.0201 17.5657 14.5676 18.0182 14.0019 18.0041Z" fill="black"/>
</g>
<defs>
<clipPath id="clip0">
<rect width="24" height="24" fill="white" transform="translate(17 33.9706) rotate(-135)"/>
</clipPath>
</defs>
</svg>
