<?xml version="1.0" encoding="UTF-8"?>
<svg width="20px" height="25px" viewBox="0 0 20 25" version="1.1" xmlns="http://www.w3.org/2000/svg" xmlns:xlink="http://www.w3.org/1999/xlink">
    <!-- Generator: Sketch 43.1 (39012) - http://www.bohemiancoding.com/sketch -->
    <title>archive</title>
    <desc>Created with Sketch.</desc>
    <defs></defs>
    <g id="Page-1" stroke="none" stroke-width="1" fill="none" fill-rule="evenodd">
        <g id="icons" transform="translate(-427.000000, -249.000000)" fill-rule="nonzero">
            <g id="archive" transform="translate(428.000000, 250.000000)">
                <g id="Capa_1">
                    <g id="Group">
                        <path d="M16.2777459,0 L1.52593168,0 C0.859652047,0 0.32109375,0.540686986 0.32109375,1.20412837 L0.32109375,20.7958716 C0.32109375,21.4621513 0.859652047,22 1.52593168,22 L12.5972428,22 L12.5972428,17.7284309 C12.5972428,17.0628608 13.1379297,16.5257217 13.8020807,16.5257217 L17.4811647,16.5257217 L17.4811647,1.20412837 C17.4811647,0.540686986 16.943316,0 16.2777459,0 Z M10.3039352,2.53172069 L10.3039352,2.58422835 C10.3039352,3.04402516 9.87819744,3.39100145 9.4191102,3.39100145 L8.63930049,3.39100145 C8.18021325,3.39100145 7.80698312,3.04473472 7.80698312,2.58422835 L7.80698312,2.53172069 C7.80698312,2.07334301 8.17950368,1.70011289 8.63930049,1.70011289 L9.4191102,1.70011289 C9.87890701,1.70011289 10.3039352,2.07334301 10.3039352,2.53172069 Z M6.14305795,0.842960813 C6.14305795,0.384583132 6.51557851,0.0376068376 6.97679444,0.0376068376 L7.83465608,0.0376068376 C8.29303376,0.0376068376 8.66484476,0.383873569 8.66484476,0.842960813 L8.66484476,0.869214643 C8.66484476,1.32759232 8.29374332,1.70082245 7.83465608,1.70082245 L6.97679444,1.70082245 C6.51628807,1.70082245 6.14305795,1.32830189 6.14305795,0.869214643 L6.14305795,0.842960813 Z M6.94983105,3.39100145 L7.80769269,3.39100145 C8.26890862,3.39100145 8.64001005,3.73584906 8.64001005,4.19635543 C8.64001005,4.65473311 8.26961818,5.02796323 7.80769269,5.02796323 L6.94983105,5.02796323 C6.49145337,5.02796323 6.11680412,4.65544267 6.11680412,4.19635543 C6.11680412,3.73655862 6.49074381,3.39100145 6.94983105,3.39100145 Z M6.11680412,7.55187873 L6.11680412,7.5256249 C6.11680412,7.06440897 6.49074381,6.69259797 6.94983105,6.69259797 L7.83465608,6.69259797 C8.29303376,6.69259797 8.66484476,7.0636994 8.66484476,7.5256249 L8.66484476,7.55187873 C8.66484476,8.00954685 8.29374332,8.38348653 7.83465608,8.38348653 L6.94983105,8.38348653 C6.49074381,8.38277697 6.11680412,8.00883728 6.11680412,7.55187873 Z M9.47161786,16.676149 L7.86020035,16.676149 C7.40182266,16.676149 7.00233871,16.3022093 7.00233871,15.841703 L7.00233871,11.7106273 C7.00233871,11.2508305 7.4011131,10.8776004 7.86020035,10.8776004 L9.41981976,10.8776004 C9.87890701,10.8776004 10.2776814,11.2501209 10.2776814,11.7106273 L10.3046448,15.841703 C10.3039352,16.3022093 9.93141467,16.676149 9.47161786,16.676149 Z M9.49716213,10.0211579 L8.64001005,10.0211579 C8.18092281,10.0211579 7.80769269,9.67489115 7.80769269,9.21296565 C7.80769269,8.75458797 8.18021325,8.38277697 8.64001005,8.38277697 L9.49716213,8.38277697 C9.95695893,8.38277697 10.3294795,8.75387841 10.3294795,9.21296565 C10.3287699,9.67489115 9.95695893,10.0211579 9.49716213,10.0211579 Z M9.44607359,6.69259797 L8.6123371,6.69259797 C8.15395942,6.69259797 7.78143886,6.31865828 7.78143886,5.86099016 C7.78143886,5.40119336 8.15395942,5.02796323 8.6123371,5.02796323 L9.44607359,5.02796323 C9.90445127,5.02796323 10.3287699,5.40048379 10.3287699,5.86099016 C10.3287699,6.31794872 9.90516084,6.69259797 9.44607359,6.69259797 Z" id="Shape" stroke="#ADADAD"></path>
                        <path d="M14.1546875,19.696875 L14.1546875,23.2234375 L18.2140625,18.2921875 L15.4820312,18.3703125 C14.7484375,18.3695312 14.1546875,18.9648437 14.1546875,19.696875 Z" id="Shape" fill="#ADADAD"></path>
                    </g>
                </g>
            </g>
        </g>
    </g>
</svg>