<?xml version="1.0" encoding="UTF-8"?>
<svg width="22px" height="22px" viewBox="0 0 22 22" version="1.1" xmlns="http://www.w3.org/2000/svg" xmlns:xlink="http://www.w3.org/1999/xlink">
    <!-- Generator: Sketch 43.1 (39012) - http://www.bohemiancoding.com/sketch -->
    <title>music</title>
    <desc>Created with Sketch.</desc>
    <defs></defs>
    <g id="Page-1" stroke="none" stroke-width="1" fill="none" fill-rule="evenodd">
        <g id="icons" transform="translate(-391.000000, -251.000000)" fill-rule="nonzero" stroke="#ADADAD">
            <g id="music" transform="translate(392.000000, 252.000000)">
                <g id="Capa_1">
                    <g id="volume-up">
                        <path d="M0.0454545455,6.42979798 L0.0454545455,13.0813131 L4.47979798,13.0813131 L10.0227273,18.6242424 L10.0227273,0.886868687 L4.47979798,6.42979798 L0.0454545455,6.42979798 Z M15.0113636,9.75555556 C15.0113636,7.76010101 13.9027778,6.09722222 12.239899,5.32121212 L12.239899,14.189899 C13.9027778,13.4138889 15.0113636,11.7510101 15.0113636,9.75555556 Z M12.239899,0 L12.239899,2.3280303 C15.454798,3.32575758 17.7828283,6.20803733 17.7828283,9.75555556 C17.7828283,13.3030738 15.454798,16.1853535 12.239899,17.1830808 L12.239899,19.5111111 C16.6742424,18.5133404 20,14.5224747 20,9.75555556 C20,4.98863636 16.6742424,0.997683799 12.239899,0 Z" id="Shape"></path>
                    </g>
                </g>
            </g>
        </g>
    </g>
</svg>