<svg width="128" height="128" viewBox="0 0 128 128" fill="none" xmlns="http://www.w3.org/2000/svg">
<mask id="mask0" mask-type="alpha" maskUnits="userSpaceOnUse" x="0" y="0" width="128" height="128">
<path fill-rule="evenodd" clip-rule="evenodd" d="M128 88.1408C128 89.6625 128 91.1842 127.991 92.708C127.984 93.9893 127.969 95.2706 127.933 96.5519C127.857 99.3417 127.69 102.16 127.188 104.919C126.679 107.722 125.849 110.331 124.536 112.878C123.248 115.379 121.566 117.668 119.559 119.653C117.551 121.638 115.233 123.303 112.703 124.575C110.129 125.872 107.492 126.694 104.657 127.197C101.864 127.693 99.015 127.859 96.1908 127.934C90.761 128 89.2217 128 87.6825 128H58.0012H40.3198C34.4037 127.982 33.1075 127.969 31.8114 127.934C28.9872 127.859 26.1385 127.693 23.3455 127.197C20.5101 126.694 17.8733 125.872 15.2989 124.575C12.767 123.303 10.4514 121.638 8.44364 119.653C6.43591 117.668 4.75387 115.379 3.46446 112.878C2.15274 110.331 1.32287 107.722 0.812017 104.919C0.310083 102.16 0.145003 99.3417 0.0691553 96.5519C0.0334622 95.2706 0.0178465 93.9893 0.0111541 92.708C0 91.1842 0 89.6625 0 88.1408V70.6613V57.3387V39.8592C0 38.3375 0 36.8136 0.0111541 35.2942C0.0178465 34.0107 0.0334622 32.7294 0.0691553 31.4481C0.145003 28.6561 0.310083 25.8399 0.812017 23.0788C1.32287 20.2758 2.15274 17.6691 3.46446 15.122C4.75387 12.6189 6.43591 10.3298 8.44364 8.34719C10.4514 6.36018 12.767 4.69736 15.2989 3.42488C17.8733 2.12815 20.5101 1.30556 23.3455 0.802742C26.1385 0.306541 28.9872 0.141141 31.8114 0.06616C37.2412 0 38.7805 0 40.3198 0H58.0012H86.4198L69.9988 0.006616L87.6825 0C93.5964 0.0176427 94.8925 0.0308747 96.1908 0.06616C99.015 0.141141 101.864 0.306541 104.657 0.802742C107.492 1.30556 110.129 2.12815 112.703 3.42488C115.233 4.69736 117.551 6.36018 119.559 8.34719C121.566 10.3298 123.248 12.6189 124.536 15.122C125.849 17.6691 126.679 20.2758 127.188 23.0788C127.69 25.8399 127.857 28.6561 127.933 31.4481C127.969 32.7294 127.984 34.0107 127.991 35.2942C128 36.8136 128 38.3375 128 39.8592V57.3387V70.6613V88.1408Z" fill="white"/>
</mask>
<g mask="url(#mask0)">
<rect width="128" height="128" fill="white"/>
<path d="M119.151 32.9576C119.084 29.5018 119.02 26.2371 119.02 23.0788C119.02 20.6045 116.963 18.5985 114.425 18.5985C94.7766 18.5985 79.8167 13.0919 67.3469 1.2686C65.5631 -0.423166 62.7244 -0.422569 60.9411 1.2686C48.4726 13.0919 33.5151 18.5985 13.8677 18.5985C11.3304 18.5985 9.27332 20.6045 9.27332 23.0788C9.27332 26.2377 9.20961 29.5036 9.14161 32.96C8.51188 65.1203 7.64936 109.165 62.6392 127.753C63.1269 127.918 63.6353 128 64.1437 128C64.6522 128 65.1612 127.918 65.6482 127.753C120.642 109.165 119.781 65.1185 119.151 32.9576Z" fill="#FF1D1D"/>
<path d="M109.443 38.3296C109.388 35.472 109.335 32.7724 109.335 30.1608C109.335 28.1148 107.641 26.4561 105.55 26.4561C89.3658 26.4561 77.0434 21.9027 66.772 12.126C65.3027 10.7271 62.9644 10.7276 61.4956 12.126C51.2253 21.9027 38.9048 26.4561 22.7212 26.4561C20.6312 26.4561 18.9368 28.1148 18.9368 30.1608C18.9368 32.7729 18.8844 35.4735 18.8284 38.3316C18.3096 64.9249 17.5992 101.346 62.8943 116.715C63.2959 116.852 63.7147 116.92 64.1336 116.92C64.5524 116.92 64.9717 116.852 65.3728 116.715C110.671 101.345 109.962 64.9234 109.443 38.3296Z" fill="#222222"/>
<path d="M57.9329 79.3791C57.9625 74.9557 58.575 71.7172 59.7706 69.6635C60.9662 67.6098 63.3499 65.1138 66.9219 62.1754C69.0178 60.3428 70.6931 58.3681 71.9477 56.2512C73.2023 54.1343 73.8296 51.7646 73.8296 49.1422C73.8296 46.2354 73.1137 43.9605 71.682 42.3175C70.2503 40.6746 68.206 39.8531 65.5492 39.8531C63.3647 39.8531 61.5123 40.5482 59.992 41.9384C58.4717 43.3286 57.6968 45.3665 57.6673 48.0521H45.0916L45.003 47.7678C44.9144 41.7014 46.7816 37.0569 50.6045 33.8341C54.4274 30.6114 59.4089 29 65.5491 29C72.1617 29 77.3498 30.793 81.1137 34.3791C84.8775 37.9653 86.7594 42.8388 86.7594 49C86.7594 53.0127 85.6598 56.7251 83.4606 60.1374C81.2613 63.5498 78.5086 66.4091 75.2023 68.7156C73.4016 70.2006 72.2208 71.6935 71.6599 73.1943C71.099 74.6951 70.8186 76.7567 70.8186 79.3791H57.9329H57.9329H57.9329ZM70.9071 99H57.8887V87.1517H70.9071V99Z" fill="#FF1D1D"/>
</g>
</svg>
