<svg width="128" height="128" viewBox="0 0 128 128" fill="none" xmlns="http://www.w3.org/2000/svg">
<mask id="mask0" mask-type="alpha" maskUnits="userSpaceOnUse" x="0" y="0" width="128" height="128">
<path fill-rule="evenodd" clip-rule="evenodd" d="M128 88.1408C128 89.6625 128 91.1842 127.991 92.708C127.984 93.9893 127.969 95.2706 127.933 96.5519C127.857 99.3417 127.69 102.16 127.188 104.919C126.679 107.722 125.849 110.331 124.536 112.878C123.248 115.379 121.566 117.668 119.559 119.653C117.551 121.638 115.233 123.303 112.703 124.575C110.129 125.872 107.492 126.694 104.657 127.197C101.864 127.693 99.015 127.859 96.1908 127.934C90.761 128 89.2217 128 87.6825 128H58.0012H40.3198C34.4037 127.982 33.1075 127.969 31.8114 127.934C28.9872 127.859 26.1385 127.693 23.3455 127.197C20.5101 126.694 17.8733 125.872 15.2989 124.575C12.767 123.303 10.4514 121.638 8.44364 119.653C6.43591 117.668 4.75387 115.379 3.46446 112.878C2.15274 110.331 1.32287 107.722 0.812017 104.919C0.310083 102.16 0.145003 99.3417 0.0691553 96.5519C0.0334622 95.2706 0.0178465 93.9893 0.0111541 92.708C0 91.1842 0 89.6625 0 88.1408V70.6613V57.3387V39.8592C0 38.3375 0 36.8136 0.0111541 35.2942C0.0178465 34.0107 0.0334622 32.7294 0.0691553 31.4481C0.145003 28.6561 0.310083 25.8399 0.812017 23.0788C1.32287 20.2758 2.15274 17.6691 3.46446 15.122C4.75387 12.6189 6.43591 10.3298 8.44364 8.34719C10.4514 6.36018 12.767 4.69736 15.2989 3.42488C17.8733 2.12815 20.5101 1.30556 23.3455 0.802742C26.1385 0.306541 28.9872 0.141141 31.8114 0.06616C37.2412 0 38.7805 0 40.3198 0H58.0012H86.4198L69.9988 0.006616L87.6825 0C93.5964 0.0176427 94.8925 0.0308747 96.1908 0.06616C99.015 0.141141 101.864 0.306541 104.657 0.802742C107.492 1.30556 110.129 2.12815 112.703 3.42488C115.233 4.69736 117.551 6.36018 119.559 8.34719C121.566 10.3298 123.248 12.6189 124.536 15.122C125.849 17.6691 126.679 20.2758 127.188 23.0788C127.69 25.8399 127.857 28.6561 127.933 31.4481C127.969 32.7294 127.984 34.0107 127.991 35.2942C128 36.8136 128 38.3375 128 39.8592V57.3387V70.6613V88.1408Z" fill="white"/>
</mask>
<g mask="url(#mask0)">
<rect width="128" height="128" fill="white"/>
<mask id="path-3-inside-1" fill="white">
<path fill-rule="evenodd" clip-rule="evenodd" d="M66.5954 35.1389L63.982 30.6124L58.1886 40.6469L60.5369 44.7143H66.5954V35.1389ZM57.8999 40.1469L63.6934 30.1124L61.093 25.6084C59.7075 23.2086 56.639 22.3864 54.2393 23.7719C51.8395 25.1574 51.0173 28.2259 52.4028 30.6256L57.8999 40.1469ZM61.526 25.3584L63.982 29.6124L66.109 25.9283C67.729 23.1223 71.317 22.1609 74.123 23.781C76.929 25.401 77.8904 28.989 76.2704 31.795L52.1343 73.6H68.1042H68.6042C73.2592 73.6 77.0327 77.3736 77.0327 82.0285C77.0327 83.2015 76.7931 84.3186 76.3601 85.3334H24C20.7599 85.3334 18.1333 82.7068 18.1333 79.4667C18.1333 76.2266 20.7599 73.6 24 73.6H38.5858L57.6113 40.6469L51.9698 30.8756C50.4463 28.2367 51.3504 24.8625 53.9893 23.3389C56.6281 21.8154 60.0024 22.7195 61.526 25.3584ZM67.0954 35.0049L64.2707 30.1124L66.542 26.1783C68.024 23.6115 71.3062 22.732 73.873 24.214C76.4399 25.696 77.3193 28.9782 75.8374 31.545L51.5569 73.6H39.1631L57.8999 41.1469L60.2483 45.2143H66.5954H67.0954V44.7143V35.0049ZM38.8745 74.1H51.2682L48.7693 78.4283H36.3755L38.8745 74.1ZM24 74.1H38.2971L35.7982 78.4283L35.5095 78.9283H36.0868H49.058L51.8456 74.1H68.1042H68.6042C72.983 74.1 76.5327 77.6497 76.5327 82.0285C76.5327 83.0168 76.3521 83.962 76.0224 84.8334H24C21.0361 84.8334 18.6333 82.4306 18.6333 79.4667C18.6333 76.5027 21.0361 74.1 24 74.1ZM89.8695 74.1H104C106.964 74.1 109.367 76.5027 109.367 79.4667C109.367 82.4306 106.964 84.8334 104 84.8334H96.0664L89.8695 74.1ZM89.5808 73.6H104C107.24 73.6 109.867 76.2266 109.867 79.4667C109.867 82.7068 107.24 85.3334 104 85.3334H96.3551L102.11 95.3011C103.73 98.1071 102.769 101.695 99.9626 103.315C97.1566 104.935 93.5686 103.974 91.9486 101.168L74.3088 70.6147C72.7369 67.5892 71.513 65.2415 70.7853 63.9811C67.2372 57.8356 68.2032 50.3227 72.6545 45.2828C72.7701 45.152 72.888 45.0228 73.0082 44.8954L73.2695 45.348L89.5808 73.6ZM95.7777 85.3334L101.677 95.5511C103.159 98.118 102.279 101.4 99.7126 102.882C97.1458 104.364 93.8636 103.485 92.3816 100.918L74.7474 70.3744C73.1808 67.359 71.9523 65.0023 71.2184 63.7311C67.8104 57.8283 68.7002 50.6225 72.9187 45.7404L89.0035 73.6H88.6229H88.1229V74.1V84.8334V85.3334H88.6229H95.7777ZM95.4891 84.8334H88.6229V74.1H89.2921L95.4891 84.8334ZM34.4436 86.9737C37.6317 86.9737 40.4243 88.6668 41.9714 91.2029L36.2706 101.077C34.6506 103.883 31.0626 104.844 28.2566 103.224C25.4506 101.604 24.4892 98.0163 26.1092 95.2104L30.2971 87.9568C31.5453 87.3274 32.9547 86.9737 34.4436 86.9737ZM26.5423 95.4604L30.6544 88.338C31.8013 87.7838 33.087 87.4737 34.4436 87.4737C37.345 87.4737 39.8997 88.9601 41.3871 91.215L35.8376 100.827C34.3556 103.394 31.0734 104.273 28.5066 102.791C25.9398 101.309 25.0603 98.0272 26.5423 95.4604Z"/>
</mask>
<path d="M63.982 30.6124L64.415 30.3624L63.982 29.6124L63.549 30.3624L63.982 30.6124ZM66.5954 35.1389H67.0954V35.0049L67.0285 34.8889L66.5954 35.1389ZM58.1886 40.6469L57.7556 40.3969L57.6113 40.6469L57.7556 40.8969L58.1886 40.6469ZM60.5369 44.7143L60.1039 44.9643L60.2483 45.2143H60.5369V44.7143ZM66.5954 44.7143V45.2143H67.0954V44.7143H66.5954ZM63.6934 30.1124L64.1264 30.3624L64.2707 30.1124L64.1264 29.8624L63.6934 30.1124ZM57.8999 40.1469L57.4669 40.3969L57.8999 41.1469L58.333 40.3969L57.8999 40.1469ZM61.093 25.6084L61.526 25.3584V25.3584L61.093 25.6084ZM54.2393 23.7719L53.9893 23.3389V23.3389L54.2393 23.7719ZM52.4028 30.6256L51.9698 30.8756V30.8756L52.4028 30.6256ZM63.982 29.6124L63.549 29.8624L63.982 30.6124L64.415 29.8624L63.982 29.6124ZM61.526 25.3584L61.0929 25.6084V25.6084L61.526 25.3584ZM66.109 25.9283L66.542 26.1783V26.1783L66.109 25.9283ZM74.123 23.781L74.373 23.348L74.123 23.781ZM76.2704 31.795L75.8374 31.545L76.2704 31.795ZM52.1343 73.6L51.7012 73.35L51.2682 74.1H52.1343V73.6ZM76.3601 85.3334V85.8334H76.6904L76.82 85.5296L76.3601 85.3334ZM38.5858 73.6V74.1H38.8745L39.0188 73.85L38.5858 73.6ZM57.6113 40.6469L58.0443 40.8969L58.1886 40.6469L58.0443 40.3969L57.6113 40.6469ZM51.9698 30.8756L52.4028 30.6256V30.6256L51.9698 30.8756ZM53.9893 23.3389L54.2393 23.7719V23.7719L53.9893 23.3389ZM64.2707 30.1124L63.8377 29.8624L63.6934 30.1124L63.8377 30.3624L64.2707 30.1124ZM67.0954 35.0049H67.5954V34.871L67.5285 34.7549L67.0954 35.0049ZM66.542 26.1783L66.109 25.9283V25.9283L66.542 26.1783ZM73.873 24.214L74.123 23.781V23.781L73.873 24.214ZM75.8374 31.545L76.2704 31.795V31.795L75.8374 31.545ZM51.5569 73.6V74.1H51.8456L51.9899 73.85L51.5569 73.6ZM39.1631 73.6L38.7301 73.35L38.2971 74.1H39.1631V73.6ZM57.8999 41.1469L58.333 40.8969L57.8999 40.1469L57.4669 40.8969L57.8999 41.1469ZM60.2483 45.2143L59.8153 45.4643L59.9596 45.7143H60.2483V45.2143ZM67.0954 45.2143V45.7143H67.5954V45.2143H67.0954ZM51.2682 74.1L51.7013 74.35L52.1343 73.6H51.2682V74.1ZM38.8745 74.1V73.6H38.5858L38.4415 73.85L38.8745 74.1ZM48.7693 78.4283V78.9283H49.058L49.2023 78.6783L48.7693 78.4283ZM36.3755 78.4283L35.9425 78.1783L35.5095 78.9283H36.3755V78.4283ZM38.2971 74.1L38.7301 74.35L39.1631 73.6H38.2971V74.1ZM35.7982 78.4283L36.2312 78.6783L35.7982 78.4283ZM35.5095 78.9283L35.0765 78.6783L34.6435 79.4283H35.5095V78.9283ZM49.058 78.9283V79.4283H49.3466L49.491 79.1783L49.058 78.9283ZM51.8456 74.1V73.6H51.5569L51.4126 73.85L51.8456 74.1ZM76.0224 84.8334V85.3334H76.3679L76.4901 85.0103L76.0224 84.8334ZM89.8695 74.1V73.6H89.0035L89.4365 74.35L89.8695 74.1ZM96.0664 84.8334L95.6334 85.0834L95.7777 85.3334H96.0664V84.8334ZM89.5808 73.6L89.1478 73.85L89.2921 74.1H89.5808V73.6ZM96.3551 85.3334V84.8334H95.4891L95.9221 85.5834L96.3551 85.3334ZM102.11 95.3011L101.677 95.5511L102.11 95.3011ZM99.9626 103.315L99.7126 102.882L99.9626 103.315ZM91.9486 101.168L92.3816 100.918L91.9486 101.168ZM74.3088 70.6147L73.8651 70.8452L73.8702 70.8551L73.8758 70.8647L74.3088 70.6147ZM70.7853 63.9811L71.2184 63.7311L70.7853 63.9811ZM72.6545 45.2828L73.0293 45.6138V45.6138L72.6545 45.2828ZM73.0082 44.8954L73.4412 44.6454L73.1054 44.0637L72.6445 44.5522L73.0082 44.8954ZM73.2695 45.348L72.8365 45.598L73.2695 45.348ZM101.677 95.5511L101.244 95.8011L101.677 95.5511ZM95.7777 85.3334L96.2107 85.0834L96.0664 84.8334H95.7777V85.3334ZM99.7126 102.882L99.4626 102.449L99.7126 102.882ZM92.3816 100.918L91.9486 101.168L92.3816 100.918ZM74.7474 70.3744L74.3037 70.6049L74.3088 70.6147L74.3143 70.6244L74.7474 70.3744ZM71.2184 63.7311L70.7853 63.9811L71.2184 63.7311ZM72.9187 45.7404L73.3517 45.4904L73.0001 44.8814L72.5403 45.4135L72.9187 45.7404ZM89.0035 73.6V74.1H89.8695L89.4365 73.35L89.0035 73.6ZM88.1229 73.6V73.1H87.6229V73.6H88.1229ZM88.1229 85.3334H87.6229V85.8334H88.1229V85.3334ZM88.6229 84.8334H88.1229V85.3334H88.6229V84.8334ZM95.4891 84.8334V85.3334H96.3551L95.9221 84.5834L95.4891 84.8334ZM88.6229 74.1V73.6H88.1229V74.1H88.6229ZM89.2921 74.1L89.7252 73.85L89.5808 73.6H89.2921V74.1ZM41.9714 91.2029L42.4044 91.4529L42.5528 91.1959L42.3983 90.9425L41.9714 91.2029ZM36.2706 101.077L35.8376 100.827H35.8376L36.2706 101.077ZM28.2566 103.224L28.5066 102.791H28.5066L28.2566 103.224ZM26.1092 95.2104L26.5423 95.4604L26.1092 95.2104ZM30.2971 87.9568L30.072 87.5103L29.9387 87.5775L29.8641 87.7068L30.2971 87.9568ZM30.6544 88.338L30.4368 87.8878L30.2983 87.9547L30.2213 88.088L30.6544 88.338ZM26.5423 95.4604L26.1092 95.2104L26.5423 95.4604ZM41.3871 91.215L41.8201 91.465L41.9745 91.1976L41.8045 90.9397L41.3871 91.215ZM35.8376 100.827L35.4046 100.577L35.8376 100.827ZM28.5066 102.791L28.2566 103.224L28.5066 102.791ZM63.549 30.8624L66.1624 35.3889L67.0285 34.8889L64.415 30.3624L63.549 30.8624ZM58.6216 40.8969L64.415 30.8624L63.549 30.3624L57.7556 40.3969L58.6216 40.8969ZM60.97 44.4643L58.6216 40.3969L57.7556 40.8969L60.1039 44.9643L60.97 44.4643ZM66.5954 44.2143H60.5369V45.2143H66.5954V44.2143ZM66.0954 35.1389V44.7143H67.0954V35.1389H66.0954ZM63.2603 29.8624L57.4669 39.8969L58.333 40.3969L64.1264 30.3624L63.2603 29.8624ZM60.6599 25.8584L63.2603 30.3624L64.1264 29.8624L61.526 25.3584L60.6599 25.8584ZM54.4893 24.2049C56.6498 22.9575 59.4125 23.6978 60.6599 25.8584L61.526 25.3584C60.0024 22.7195 56.6281 21.8154 53.9893 23.3389L54.4893 24.2049ZM52.8358 30.3756C51.5884 28.215 52.3287 25.4523 54.4893 24.2049L53.9893 23.3389C51.3504 24.8625 50.4463 28.2367 51.9698 30.8756L52.8358 30.3756ZM58.333 39.8969L52.8358 30.3756L51.9698 30.8756L57.4669 40.3969L58.333 39.8969ZM64.415 29.3624L61.959 25.1084L61.0929 25.6084L63.549 29.8624L64.415 29.3624ZM65.676 25.6783L63.549 29.3624L64.415 29.8624L66.542 26.1783L65.676 25.6783ZM74.373 23.348C71.3279 21.5899 67.4341 22.6332 65.676 25.6783L66.542 26.1783C68.024 23.6115 71.3062 22.732 73.873 24.214L74.373 23.348ZM76.7034 32.045C78.4615 28.9999 77.4182 25.1061 74.373 23.348L73.873 24.214C76.4399 25.696 77.3193 28.9782 75.8374 31.545L76.7034 32.045ZM52.5673 73.85L76.7034 32.045L75.8374 31.545L51.7012 73.35L52.5673 73.85ZM68.1042 73.1H52.1343V74.1H68.1042V73.1ZM68.6042 73.1H68.1042V74.1H68.6042V73.1ZM77.5327 82.0285C77.5327 77.0974 73.5353 73.1 68.6042 73.1V74.1C72.983 74.1 76.5327 77.6497 76.5327 82.0285H77.5327ZM76.82 85.5296C77.279 84.4539 77.5327 83.2702 77.5327 82.0285H76.5327C76.5327 83.1329 76.3072 84.1832 75.9002 85.1371L76.82 85.5296ZM24 85.8334H76.3601V84.8334H24V85.8334ZM17.6333 79.4667C17.6333 82.9829 20.4838 85.8334 24 85.8334V84.8334C21.0361 84.8334 18.6333 82.4306 18.6333 79.4667H17.6333ZM24 73.1C20.4838 73.1 17.6333 75.9505 17.6333 79.4667H18.6333C18.6333 76.5027 21.0361 74.1 24 74.1V73.1ZM38.5858 73.1H24V74.1H38.5858V73.1ZM57.1783 40.3969L38.1528 73.35L39.0188 73.85L58.0443 40.8969L57.1783 40.3969ZM51.5368 31.1256L57.1783 40.8969L58.0443 40.3969L52.4028 30.6256L51.5368 31.1256ZM53.7393 22.9059C50.8613 24.5675 49.8752 28.2476 51.5368 31.1256L52.4028 30.6256C51.0173 28.2259 51.8395 25.1574 54.2393 23.7719L53.7393 22.9059ZM61.959 25.1084C60.2974 22.2304 56.6173 21.2443 53.7393 22.9059L54.2393 23.7719C56.639 22.3864 59.7075 23.2086 61.0929 25.6084L61.959 25.1084ZM63.8377 30.3624L66.6624 35.2549L67.5285 34.7549L64.7037 29.8624L63.8377 30.3624ZM66.109 25.9283L63.8377 29.8624L64.7037 30.3624L66.975 26.4283L66.109 25.9283ZM74.123 23.781C71.317 22.1609 67.729 23.1223 66.109 25.9283L66.975 26.4283C68.3189 24.1006 71.2953 23.3031 73.623 24.647L74.123 23.781ZM76.2704 31.795C77.8904 28.989 76.929 25.401 74.123 23.781L73.623 24.647C75.9507 25.9909 76.7482 28.9673 75.4043 31.295L76.2704 31.795ZM51.9899 73.85L76.2704 31.795L75.4043 31.295L51.1239 73.35L51.9899 73.85ZM39.1631 74.1H51.5569V73.1H39.1631V74.1ZM57.4669 40.8969L38.7301 73.35L39.5961 73.85L58.333 41.3969L57.4669 40.8969ZM60.6813 44.9643L58.333 40.8969L57.4669 41.3969L59.8153 45.4643L60.6813 44.9643ZM66.5954 44.7143H60.2483V45.7143H66.5954V44.7143ZM67.0954 44.7143H66.5954V45.7143H67.0954V44.7143ZM66.5954 44.7143V45.2143H67.5954V44.7143H66.5954ZM66.5954 35.0049V44.7143H67.5954V35.0049H66.5954ZM51.2682 73.6H38.8745V74.6H51.2682V73.6ZM49.2023 78.6783L51.7013 74.35L50.8352 73.85L48.3363 78.1783L49.2023 78.6783ZM36.3755 78.9283H48.7693V77.9283H36.3755V78.9283ZM38.4415 73.85L35.9425 78.1783L36.8085 78.6783L39.3075 74.35L38.4415 73.85ZM38.2971 73.6H24V74.6H38.2971V73.6ZM36.2312 78.6783L38.7301 74.35L37.8641 73.85L35.3652 78.1783L36.2312 78.6783ZM35.9425 79.1783L36.2312 78.6783L35.3652 78.1783L35.0765 78.6783L35.9425 79.1783ZM36.0868 78.4283H35.5095V79.4283H36.0868V78.4283ZM49.058 78.4283H36.0868V79.4283H49.058V78.4283ZM51.4126 73.85L48.625 78.6783L49.491 79.1783L52.2786 74.35L51.4126 73.85ZM68.1042 73.6H51.8456V74.6H68.1042V73.6ZM68.6042 73.6H68.1042V74.6H68.6042V73.6ZM77.0327 82.0285C77.0327 77.3736 73.2591 73.6 68.6042 73.6V74.6C72.7069 74.6 76.0327 77.9259 76.0327 82.0285H77.0327ZM76.4901 85.0103C76.8408 84.0832 77.0327 83.0782 77.0327 82.0285H76.0327C76.0327 82.9555 75.8634 83.8407 75.5548 84.6564L76.4901 85.0103ZM24 85.3334H76.0224V84.3334H24V85.3334ZM18.1333 79.4667C18.1333 82.7068 20.7599 85.3334 24 85.3334V84.3334C21.3122 84.3334 19.1333 82.1545 19.1333 79.4667H18.1333ZM24 73.6C20.7599 73.6 18.1333 76.2266 18.1333 79.4667H19.1333C19.1333 76.7789 21.3122 74.6 24 74.6V73.6ZM104 73.6H89.8695V74.6H104V73.6ZM109.867 79.4667C109.867 76.2266 107.24 73.6 104 73.6V74.6C106.688 74.6 108.867 76.7789 108.867 79.4667H109.867ZM104 85.3334C107.24 85.3334 109.867 82.7068 109.867 79.4667H108.867C108.867 82.1545 106.688 84.3334 104 84.3334V85.3334ZM96.0664 85.3334H104V84.3334H96.0664V85.3334ZM89.4365 74.35L95.6334 85.0834L96.4994 84.5834L90.3025 73.85L89.4365 74.35ZM104 73.1H89.5808V74.1H104V73.1ZM110.367 79.4667C110.367 75.9505 107.516 73.1 104 73.1V74.1C106.964 74.1 109.367 76.5027 109.367 79.4667H110.367ZM104 85.8334C107.516 85.8334 110.367 82.9829 110.367 79.4667H109.367C109.367 82.4306 106.964 84.8334 104 84.8334V85.8334ZM96.3551 85.8334H104V84.8334H96.3551V85.8334ZM102.543 95.0511L96.7881 85.0834L95.9221 85.5834L101.677 95.5511L102.543 95.0511ZM100.213 103.748C103.258 101.99 104.301 98.0962 102.543 95.0511L101.677 95.5511C103.159 98.118 102.279 101.4 99.7126 102.882L100.213 103.748ZM91.5156 101.418C93.2737 104.463 97.1675 105.506 100.213 103.748L99.7126 102.882C97.1458 104.364 93.8636 103.485 92.3816 100.918L91.5156 101.418ZM73.8758 70.8647L91.5156 101.418L92.3816 100.918L74.7418 70.3647L73.8758 70.8647ZM70.3523 64.2311C71.073 65.4794 72.2904 67.8143 73.8651 70.8452L74.7525 70.3842C73.1834 67.3641 71.9531 65.0037 71.2184 63.7311L70.3523 64.2311ZM72.2797 44.9518C67.6904 50.1479 66.6936 57.894 70.3523 64.2311L71.2184 63.7311C67.7808 57.7772 68.7159 50.4975 73.0293 45.6138L72.2797 44.9518ZM72.6445 44.5522C72.5205 44.6837 72.3989 44.8169 72.2797 44.9518L73.0293 45.6138C73.1412 45.487 73.2554 45.3619 73.3719 45.2385L72.6445 44.5522ZM73.7025 45.098L73.4412 44.6454L72.5752 45.1454L72.8365 45.598L73.7025 45.098ZM90.0138 73.35L73.7025 45.098L72.8365 45.598L89.1478 73.85L90.0138 73.35ZM102.11 95.3011L96.2107 85.0834L95.3447 85.5834L101.244 95.8011L102.11 95.3011ZM99.9626 103.315C102.769 101.695 103.73 98.1071 102.11 95.3011L101.244 95.8011C102.588 98.1288 101.79 101.105 99.4626 102.449L99.9626 103.315ZM91.9486 101.168C93.5686 103.974 97.1566 104.935 99.9626 103.315L99.4626 102.449C97.1349 103.793 94.1585 102.995 92.8146 100.668L91.9486 101.168ZM74.3143 70.6244L91.9486 101.168L92.8146 100.668L75.1804 70.1244L74.3143 70.6244ZM70.7853 63.9811C71.5122 65.2402 72.7343 67.5841 74.3037 70.6049L75.191 70.1438C73.6273 67.1339 72.3923 64.7645 71.6514 63.4811L70.7853 63.9811ZM72.5403 45.4135C68.187 50.4517 67.2677 57.8884 70.7853 63.9811L71.6514 63.4811C68.353 57.7682 69.2134 50.7933 73.297 46.0673L72.5403 45.4135ZM89.4365 73.35L73.3517 45.4904L72.4857 45.9904L88.5704 73.85L89.4365 73.35ZM88.6229 74.1H89.0035V73.1H88.6229V74.1ZM88.1229 74.1H88.6229V73.1H88.1229V74.1ZM88.6229 74.1V73.6H87.6229V74.1H88.6229ZM88.6229 84.8334V74.1H87.6229V84.8334H88.6229ZM88.6229 85.3334V84.8334H87.6229V85.3334H88.6229ZM88.6229 84.8334H88.1229V85.8334H88.6229V84.8334ZM95.7777 84.8334H88.6229V85.8334H95.7777V84.8334ZM88.6229 85.3334H95.4891V84.3334H88.6229V85.3334ZM88.1229 74.1V84.8334H89.1229V74.1H88.1229ZM89.2921 73.6H88.6229V74.6H89.2921V73.6ZM95.9221 84.5834L89.7252 73.85L88.8591 74.35L95.056 85.0834L95.9221 84.5834ZM42.3983 90.9425C40.7642 88.2638 37.8132 86.4737 34.4436 86.4737V87.4737C37.4502 87.4737 40.0845 89.0698 41.5446 91.4633L42.3983 90.9425ZM36.7036 101.327L42.4044 91.4529L41.5384 90.9529L35.8376 100.827L36.7036 101.327ZM28.0066 103.657C31.0517 105.416 34.9455 104.372 36.7036 101.327L35.8376 100.827C34.3556 103.394 31.0734 104.273 28.5066 102.791L28.0066 103.657ZM25.6762 94.9604C23.9181 98.0055 24.9615 101.899 28.0066 103.657L28.5066 102.791C25.9398 101.309 25.0603 98.0272 26.5423 95.4604L25.6762 94.9604ZM29.8641 87.7068L25.6762 94.9604L26.5423 95.4604L30.7301 88.2068L29.8641 87.7068ZM34.4436 86.4737C32.8747 86.4737 31.3884 86.8465 30.072 87.5103L30.5222 88.4032C31.7022 87.8082 33.0347 87.4737 34.4436 87.4737V86.4737ZM30.2213 88.088L26.1092 95.2104L26.9753 95.7104L31.0874 88.588L30.2213 88.088ZM34.4436 86.9737C33.01 86.9737 31.6502 87.3016 30.4368 87.8878L30.8719 88.7882C31.9525 88.2661 33.1639 87.9737 34.4436 87.9737V86.9737ZM41.8045 90.9397C40.2285 88.5504 37.52 86.9737 34.4436 86.9737V87.9737C37.17 87.9737 39.5709 89.3697 40.9697 91.4903L41.8045 90.9397ZM36.2706 101.077L41.8201 91.465L40.9541 90.965L35.4046 100.577L36.2706 101.077ZM28.2566 103.224C31.0626 104.844 34.6506 103.883 36.2706 101.077L35.4046 100.577C34.0607 102.905 31.0843 103.702 28.7566 102.358L28.2566 103.224ZM26.1092 95.2104C24.4892 98.0163 25.4506 101.604 28.2566 103.224L28.7566 102.358C26.4289 101.014 25.6314 98.0381 26.9753 95.7104L26.1092 95.2104Z" fill="white" mask="url(#path-3-inside-1)"/>
<path d="M119.151 32.9576C119.084 29.5018 119.02 26.2371 119.02 23.0788C119.02 20.6045 116.963 18.5985 114.425 18.5985C94.7766 18.5985 79.8167 13.0919 67.3469 1.2686C65.5631 -0.423166 62.7244 -0.422569 60.9411 1.2686C48.4726 13.0919 33.5151 18.5985 13.8677 18.5985C11.3304 18.5985 9.27332 20.6045 9.27332 23.0788C9.27332 26.2377 9.20961 29.5036 9.14161 32.96C8.51188 65.1203 7.64936 109.165 62.6392 127.753C63.1269 127.918 63.6353 128 64.1437 128C64.6522 128 65.1612 127.918 65.6482 127.753C120.642 109.165 119.781 65.1185 119.151 32.9576Z" fill="#989898"/>
<path d="M109.443 38.3296C109.388 35.472 109.335 32.7724 109.335 30.1608C109.335 28.1148 107.641 26.4561 105.55 26.4561C89.3658 26.4561 77.0434 21.9027 66.772 12.126C65.3027 10.7271 62.9644 10.7276 61.4956 12.126C51.2252 21.9027 38.9048 26.4561 22.7212 26.4561C20.6312 26.4561 18.9368 28.1148 18.9368 30.1608C18.9368 32.7729 18.8844 35.4735 18.8283 38.3316C18.3096 64.9249 17.5992 101.346 62.8943 116.715C63.2959 116.852 63.7147 116.92 64.1335 116.92C64.5523 116.92 64.9717 116.852 65.3728 116.715C110.671 101.345 109.962 64.9234 109.443 38.3296Z" fill="#222222"/>
<path d="M57 34H42V94H57V34Z" fill="#989898"/>
<path d="M86 34H71V94H86V34Z" fill="#989898"/>
</g>
</svg>
