<svg width="128" height="128" viewBox="0 0 128 128" fill="none" xmlns="http://www.w3.org/2000/svg">
<path fill-rule="evenodd" clip-rule="evenodd" d="M128 88.1408C128 89.6625 128 91.1842 127.991 92.708C127.984 93.9893 127.969 95.2706 127.933 96.5519C127.857 99.3417 127.69 102.16 127.188 104.919C126.679 107.722 125.849 110.331 124.536 112.878C123.248 115.379 121.566 117.668 119.559 119.653C117.551 121.638 115.233 123.303 112.703 124.575C110.129 125.872 107.492 126.694 104.657 127.197C101.864 127.693 99.015 127.859 96.1908 127.934C90.761 128 89.2217 128 87.6825 128H58.0012H40.3198C34.4037 127.982 33.1075 127.969 31.8114 127.934C28.9872 127.859 26.1385 127.693 23.3455 127.197C20.5101 126.694 17.8733 125.872 15.2989 124.575C12.767 123.303 10.4514 121.638 8.44364 119.653C6.43591 117.668 4.75387 115.379 3.46446 112.878C2.15274 110.331 1.32287 107.722 0.812017 104.919C0.310083 102.16 0.145003 99.3417 0.0691553 96.5519C0.0334622 95.2706 0.0178465 93.9893 0.0111541 92.708C0 91.1842 0 89.6625 0 88.1408V70.6613V57.3387V39.8592C0 38.3375 0 36.8136 0.0111541 35.2942C0.0178465 34.0107 0.0334622 32.7294 0.0691553 31.4481C0.145003 28.6561 0.310083 25.8399 0.812017 23.0788C1.32287 20.2758 2.15274 17.6691 3.46446 15.122C4.75387 12.6189 6.43591 10.3298 8.44364 8.34719C10.4514 6.36018 12.767 4.69736 15.2989 3.42488C17.8733 2.12815 20.5101 1.30556 23.3455 0.802742C26.1385 0.306541 28.9872 0.141141 31.8114 0.06616C37.2412 0 38.7805 0 40.3198 0H58.0012H86.4198L69.9988 0.006616L87.6825 0C93.5964 0.0176427 94.8925 0.0308747 96.1908 0.06616C99.015 0.141141 101.864 0.306541 104.657 0.802742C107.492 1.30556 110.129 2.12815 112.703 3.42488C115.233 4.69736 117.551 6.36018 119.559 8.34719C121.566 10.3298 123.248 12.6189 124.536 15.122C125.849 17.6691 126.679 20.2758 127.188 23.0788C127.69 25.8399 127.857 28.6561 127.933 31.4481C127.969 32.7294 127.984 34.0107 127.991 35.2942C128 36.8136 128 38.3375 128 39.8592V57.3387V70.6613V88.1408Z" fill="white"/>
<path d="M118.901 32.9576C118.834 29.5018 118.77 26.2371 118.77 23.0788C118.77 20.6044 116.713 18.5985 114.175 18.5985C94.5266 18.5985 79.5667 13.0919 67.0969 1.2686C65.3131 -0.423166 62.4744 -0.422569 60.6912 1.2686C48.2226 13.0919 33.2651 18.5985 13.6177 18.5985C11.0804 18.5985 9.02332 20.6044 9.02332 23.0788C9.02332 26.2377 8.95961 29.5036 8.89161 32.96C8.26188 65.1203 7.39936 109.165 62.3892 127.753C62.8769 127.918 63.3853 128 63.8937 128C64.4022 128 64.9112 127.918 65.3983 127.753C120.392 109.165 119.531 65.1185 118.901 32.9576Z" fill="#EEF21D"/>
<path d="M109.482 38.3307C109.426 35.4731 109.373 32.7735 109.373 30.1619C109.373 28.1159 107.679 26.4572 105.589 26.4572C89.4041 26.4572 77.0817 21.9038 66.8103 12.1271C65.341 10.7282 63.0027 10.7287 61.5339 12.1271C51.2635 21.9038 38.9431 26.4572 22.7595 26.4572C20.6695 26.4572 18.9751 28.1159 18.9751 30.1619C18.9751 32.774 18.9227 35.4746 18.8666 38.3327C18.3479 64.926 17.6375 101.347 62.9326 116.717C63.3342 116.853 63.753 116.921 64.1718 116.921C64.5907 116.921 65.01 116.853 65.4111 116.717C110.71 101.346 110 64.9245 109.482 38.3307Z" fill="#222222"/>
<path d="M64.25 30.3766V17.75L47.375 34.5854L64.25 51.4208V38.7943C78.1719 38.7943 89.5625 50.1582 89.5625 64.0474C89.5625 68.2562 88.2969 72.4651 86.6094 75.8322L92.9374 82.1454C95.8906 76.674 98 70.7815 98 64.0474C98 45.5284 82.8125 30.3766 64.25 30.3766ZM64.25 89.3005C50.3281 89.3005 38.9375 77.9366 38.9375 64.0474C38.9375 59.8386 40.2031 55.6297 41.8906 52.2626L35.5626 45.9493C32.6093 51.4208 30.5 57.3132 30.5 64.0474C30.5 82.5663 45.6875 97.7182 64.25 97.7182V110.345L81.125 93.5093L64.25 76.674V89.3005Z" fill="#EEF21D"/>
</svg>
