<svg width="1024" height="1024" viewBox="0 0 1024 1024" fill="none" xmlns="http://www.w3.org/2000/svg">
<g clip-path="url(#clip0)">
<mask id="mask0" mask-type="alpha" maskUnits="userSpaceOnUse" x="0" y="2" width="1024" height="1024">
<path fill-rule="evenodd" clip-rule="evenodd" d="M1024 707.126C1024 719.3 1024 731.473 1023.93 743.664C1023.88 753.915 1023.75 764.165 1023.46 774.416C1022.86 796.734 1021.52 819.281 1017.5 841.352C1013.43 863.776 1006.8 884.647 996.284 905.024C985.987 925.031 972.531 943.344 956.469 959.223C940.407 975.101 921.864 988.421 901.626 998.601C881.031 1008.97 859.937 1015.56 837.254 1019.58C814.91 1023.55 792.12 1024.87 769.526 1025.47C726.088 1026 713.774 1026 701.46 1026H464.01H322.558C275.229 1025.86 264.86 1025.75 254.492 1025.47C231.898 1024.87 209.108 1023.55 186.764 1019.58C164.081 1015.56 142.986 1008.97 122.392 998.601C102.136 988.421 83.611 975.101 67.5491 959.223C51.4872 943.344 38.031 925.031 27.7157 905.024C17.2219 884.647 10.583 863.776 6.49614 841.352C2.48067 819.281 1.16002 796.734 0.553243 774.416C0.267698 764.165 0.142772 753.915 0.0892327 743.664C0 731.473 0 719.3 0 707.126V567.291V460.71V320.874C0 308.7 0 296.509 0.0892327 284.353C0.142772 274.085 0.267698 263.835 0.553243 253.585C1.16002 231.249 2.48067 208.719 6.49614 186.631C10.583 164.207 17.2219 143.353 27.7157 122.976C38.031 102.951 51.4872 84.6383 67.5491 68.7775C83.611 52.8815 102.136 39.5789 122.392 29.3991C142.986 19.0252 164.081 12.4445 186.764 8.42193C209.108 4.45233 231.898 3.12913 254.492 2.52928C297.93 2 310.244 2 322.558 2H464.01H691.359L559.99 2.05293L701.46 2C748.771 2.14114 759.14 2.247 769.526 2.52928C792.12 3.12913 814.91 4.45233 837.254 8.42193C859.937 12.4445 881.031 19.0252 901.626 29.3991C921.864 39.5789 940.407 52.8815 956.469 68.7775C972.531 84.6383 985.987 102.951 996.284 122.976C1006.8 143.353 1013.43 164.207 1017.5 186.631C1021.52 208.719 1022.86 231.249 1023.46 253.585C1023.75 263.835 1023.88 274.085 1023.93 284.353C1024 296.509 1024 308.7 1024 320.874V460.71V567.291V707.126Z" fill="white"/>
</mask>
<g mask="url(#mask0)">
<rect y="2" width="1024" height="1024" fill="white"/>
<mask id="path-3-inside-1" fill="white">
<path fill-rule="evenodd" clip-rule="evenodd" d="M536.263 282.174L511.856 239.898L461.467 327.174L482.275 363.214H536.263V282.174ZM461.178 326.674L511.567 239.398L491.775 205.117C479.724 184.245 453.036 177.094 432.164 189.144C411.292 201.195 404.141 227.883 416.191 248.755L461.178 326.674ZM492.208 204.867L511.856 238.898L528.871 209.427C541.832 186.979 570.536 179.288 592.983 192.248C615.431 205.208 623.122 233.912 610.162 256.36L417.073 590.8H548.334H548.834C586.073 590.8 616.262 620.989 616.262 658.228C616.262 667.612 614.345 676.549 610.881 684.667H192C166.079 684.667 145.067 663.654 145.067 637.733C145.067 611.813 166.079 590.8 192 590.8H308.686L460.89 327.174L415.758 249.005C403.57 227.894 410.803 200.9 431.914 188.711C453.025 176.523 480.019 183.756 492.208 204.867ZM536.763 282.04L512.144 239.398L529.304 209.677C542.127 187.468 570.525 179.859 592.733 192.681C614.942 205.503 622.551 233.901 609.729 256.11L416.496 590.8H309.263L461.178 327.674L481.986 363.714H536.263H536.763V363.214V282.04ZM308.974 591.3H416.207L392.174 632.926H284.941L308.974 591.3ZM192 591.3H308.397L284.364 632.926L284.075 633.426H284.652H392.463L416.785 591.3H548.334H548.834C585.797 591.3 615.762 621.265 615.762 658.228C615.762 667.427 613.906 676.19 610.55 684.167H192C166.356 684.167 145.567 663.378 145.567 637.733C145.567 612.089 166.356 591.3 192 591.3ZM716.935 591.3H831.999C857.644 591.3 878.433 612.089 878.433 637.733C878.433 663.378 857.644 684.167 831.999 684.167H770.552L716.935 591.3ZM716.646 590.8H831.999C857.92 590.8 878.933 611.813 878.933 637.733C878.933 663.654 857.92 684.667 831.999 684.667H770.84L816.879 764.409C829.84 786.857 822.148 815.561 799.701 828.521C777.253 841.481 748.549 833.79 735.588 811.342L594.47 566.918C581.895 542.714 572.104 523.932 566.282 513.849C537.252 463.567 545.995 401.843 583.707 361.544L583.806 361.438L583.89 361.349L584.065 361.163L584.326 361.615L716.646 590.8ZM770.263 684.667L816.446 764.659C829.269 786.868 821.659 815.266 799.451 828.088C777.242 840.91 748.844 833.301 736.021 811.092L594.908 566.677C582.339 542.484 572.543 523.693 566.715 513.599C537.825 463.559 546.49 402.142 583.969 361.996L716.069 590.8H705.483H704.983V591.3V684.167V684.667H705.483H770.263ZM769.974 684.167H705.483V591.3H716.357L769.974 684.167ZM275.549 697.789C301.054 697.789 323.396 711.334 335.772 731.623L290.166 810.616C277.205 833.064 248.501 840.755 226.054 827.795C203.606 814.835 195.914 786.131 208.875 763.683L242.378 705.654C252.363 700.619 263.638 697.789 275.549 697.789ZM209.308 763.933L242.736 706.034C252.621 701.075 263.771 698.289 275.549 698.289C300.767 698.289 322.87 711.625 335.191 731.631L289.733 810.366C276.91 832.575 248.512 840.184 226.304 827.362C204.095 814.54 196.486 786.142 209.308 763.933Z"/>
</mask>
<path d="M511.856 239.898L512.289 239.648L511.856 238.898L511.423 239.648L511.856 239.898ZM536.263 282.174H536.763V282.04L536.696 281.924L536.263 282.174ZM461.467 327.174L461.034 326.924L460.89 327.174L461.034 327.424L461.467 327.174ZM482.275 363.214L481.842 363.464L481.986 363.714H482.275V363.214ZM536.263 363.214V363.714H536.763V363.214H536.263ZM511.567 239.398L512 239.648L512.144 239.398L512 239.148L511.567 239.398ZM461.178 326.674L460.745 326.924L461.178 327.674L461.611 326.924L461.178 326.674ZM491.775 205.117L492.208 204.867L491.775 205.117ZM432.164 189.144L432.414 189.577L432.164 189.144ZM416.191 248.755L416.624 248.505L416.191 248.755ZM511.856 238.898L511.423 239.148L511.856 239.898L512.289 239.148L511.856 238.898ZM492.208 204.867L492.641 204.617L492.208 204.867ZM528.871 209.427L529.304 209.677L528.871 209.427ZM592.983 192.248L593.233 191.815V191.815L592.983 192.248ZM610.162 256.36L610.595 256.61L610.162 256.36ZM417.073 590.8L416.64 590.55L416.207 591.3H417.073V590.8ZM610.881 684.667V685.167H611.211L611.341 684.863L610.881 684.667ZM308.686 590.8V591.3H308.974L309.119 591.05L308.686 590.8ZM460.89 327.174L461.323 327.424L461.467 327.174L461.323 326.924L460.89 327.174ZM415.758 249.005L416.191 248.755L415.758 249.005ZM431.914 188.711L432.164 189.144L431.914 188.711ZM512.144 239.398L511.711 239.148L511.567 239.398L511.711 239.648L512.144 239.398ZM536.763 282.04H537.263V281.906L537.196 281.79L536.763 282.04ZM529.304 209.677L528.871 209.427L529.304 209.677ZM592.733 192.681L592.983 192.248V192.248L592.733 192.681ZM609.729 256.11L609.296 255.86L609.729 256.11ZM416.496 590.8V591.3H416.785L416.929 591.05L416.496 590.8ZM309.263 590.8L308.83 590.55L308.397 591.3H309.263V590.8ZM461.178 327.674L461.611 327.424L461.178 326.674L460.745 327.424L461.178 327.674ZM481.986 363.714L481.553 363.964L481.697 364.214H481.986V363.714ZM536.763 363.714V364.214H537.263V363.714H536.763ZM416.207 591.3L416.64 591.55L417.073 590.8H416.207V591.3ZM308.974 591.3V590.8H308.686L308.541 591.05L308.974 591.3ZM392.174 632.926V633.426H392.463L392.607 633.176L392.174 632.926ZM284.941 632.926L284.508 632.676L284.075 633.426H284.941V632.926ZM308.397 591.3L308.83 591.55L309.263 590.8H308.397V591.3ZM284.364 632.926L284.797 633.176L284.364 632.926ZM284.075 633.426L283.642 633.176L283.209 633.926H284.075V633.426ZM392.463 633.426V633.926H392.752L392.896 633.676L392.463 633.426ZM416.785 591.3V590.8H416.496L416.352 591.05L416.785 591.3ZM610.55 684.167V684.667H610.882L611.011 684.361L610.55 684.167ZM716.935 591.3V590.8H716.069L716.502 591.55L716.935 591.3ZM770.552 684.167L770.119 684.417L770.263 684.667H770.552V684.167ZM716.646 590.8L716.213 591.05L716.357 591.3H716.646V590.8ZM770.84 684.667V684.167H769.974L770.407 684.917L770.84 684.667ZM816.879 764.409L817.312 764.159L816.879 764.409ZM735.588 811.342L735.155 811.592L735.588 811.342ZM594.47 566.918L594.026 567.148L594.031 567.158L594.037 567.168L594.47 566.918ZM566.282 513.849L566.715 513.599L566.282 513.849ZM583.707 361.544L583.342 361.202L583.342 361.202L583.707 361.544ZM583.806 361.438L583.442 361.096L583.441 361.096L583.806 361.438ZM583.89 361.349L583.526 361.006L583.526 361.006L583.89 361.349ZM584.065 361.163L584.498 360.913L584.162 360.331L583.701 360.82L584.065 361.163ZM584.326 361.615L583.893 361.865V361.865L584.326 361.615ZM816.446 764.659L816.013 764.909L816.446 764.659ZM770.263 684.667L770.696 684.417L770.552 684.167H770.263V684.667ZM799.451 828.088L799.201 827.655L799.451 828.088ZM736.021 811.092L736.454 810.842L736.021 811.092ZM594.908 566.677L594.465 566.908L594.47 566.918L594.475 566.927L594.908 566.677ZM566.715 513.599L567.148 513.349L566.715 513.599ZM583.969 361.996L584.402 361.746L584.064 361.161L583.603 361.655L583.969 361.996ZM716.069 590.8V591.3H716.935L716.502 590.55L716.069 590.8ZM704.983 590.8V590.3H704.483V590.8H704.983ZM704.983 684.667H704.483V685.167H704.983V684.667ZM705.483 684.167H704.983V684.667H705.483V684.167ZM769.974 684.167V684.667H770.84L770.407 683.917L769.974 684.167ZM705.483 591.3V590.8H704.983V591.3H705.483ZM716.357 591.3L716.79 591.05L716.646 590.8H716.357V591.3ZM335.772 731.623L336.205 731.873L336.354 731.616L336.199 731.363L335.772 731.623ZM290.166 810.616L289.733 810.366L290.166 810.616ZM226.054 827.795L226.304 827.362L226.054 827.795ZM208.875 763.683L209.308 763.933L208.875 763.683ZM242.378 705.654L242.153 705.208L242.019 705.275L241.945 705.404L242.378 705.654ZM242.736 706.034L242.512 705.587L242.378 705.654L242.303 705.784L242.736 706.034ZM209.308 763.933L209.741 764.183L209.308 763.933ZM335.191 731.631L335.624 731.881L335.773 731.623L335.616 731.369L335.191 731.631ZM289.733 810.366L290.166 810.616L289.733 810.366ZM226.304 827.362L226.054 827.795L226.304 827.362ZM511.423 240.148L535.83 282.424L536.696 281.924L512.289 239.648L511.423 240.148ZM461.9 327.424L512.289 240.148L511.423 239.648L461.034 326.924L461.9 327.424ZM482.708 362.964L461.9 326.924L461.034 327.424L481.842 363.464L482.708 362.964ZM536.263 362.714H482.275V363.714H536.263V362.714ZM535.763 282.174V363.214H536.763V282.174H535.763ZM511.134 239.148L460.745 326.424L461.611 326.924L512 239.648L511.134 239.148ZM491.342 205.367L511.134 239.648L512 239.148L492.208 204.867L491.342 205.367ZM432.414 189.577C453.046 177.665 479.429 184.734 491.342 205.367L492.208 204.867C480.019 183.756 453.025 176.523 431.914 188.711L432.414 189.577ZM416.624 248.505C404.712 227.872 411.781 201.489 432.414 189.577L431.914 188.711C410.803 200.9 403.57 227.894 415.758 249.005L416.624 248.505ZM461.611 326.424L416.624 248.505L415.758 249.005L460.745 326.924L461.611 326.424ZM512.289 238.648L492.641 204.617L491.775 205.117L511.423 239.148L512.289 238.648ZM528.438 209.177L511.423 238.648L512.289 239.148L529.304 209.677L528.438 209.177ZM593.233 191.815C570.546 178.716 541.537 186.49 528.438 209.177L529.304 209.677C542.127 187.468 570.525 179.859 592.733 192.681L593.233 191.815ZM610.595 256.61C623.694 233.923 615.92 204.913 593.233 191.815L592.733 192.681C614.942 205.503 622.551 233.901 609.729 256.11L610.595 256.61ZM417.506 591.05L610.595 256.61L609.729 256.11L416.64 590.55L417.506 591.05ZM548.334 590.3H417.073V591.3H548.334V590.3ZM548.834 590.3H548.334V591.3H548.834V590.3ZM616.762 658.228C616.762 620.712 586.349 590.3 548.834 590.3V591.3C585.797 591.3 615.762 621.265 615.762 658.228H616.762ZM611.341 684.863C614.831 676.684 616.762 667.681 616.762 658.228H615.762C615.762 667.544 613.859 676.413 610.421 684.471L611.341 684.863ZM192 685.167H610.881V684.167H192V685.167ZM144.567 637.733C144.567 663.93 165.803 685.167 192 685.167V684.167C166.356 684.167 145.567 663.378 145.567 637.733H144.567ZM192 590.3C165.803 590.3 144.567 611.537 144.567 637.733H145.567C145.567 612.089 166.356 591.3 192 591.3V590.3ZM308.686 590.3H192V591.3H308.686V590.3ZM460.457 326.924L308.253 590.55L309.119 591.05L461.323 327.424L460.457 326.924ZM415.325 249.255L460.457 327.424L461.323 326.924L416.191 248.755L415.325 249.255ZM431.664 188.278C410.314 200.605 402.999 227.905 415.325 249.255L416.191 248.755C404.141 227.883 411.292 201.195 432.164 189.144L431.664 188.278ZM492.641 204.617C480.314 183.267 453.014 175.952 431.664 188.278L432.164 189.144C453.036 177.094 479.724 184.245 491.775 205.117L492.641 204.617ZM511.711 239.648L536.33 282.29L537.196 281.79L512.577 239.148L511.711 239.648ZM528.871 209.427L511.711 239.148L512.577 239.648L529.737 209.927L528.871 209.427ZM592.983 192.248C570.536 179.288 541.832 186.979 528.871 209.427L529.737 209.927C542.421 187.957 570.514 180.43 592.483 193.114L592.983 192.248ZM610.162 256.36C623.122 233.912 615.431 205.208 592.983 192.248L592.483 193.114C614.453 205.798 621.98 233.89 609.296 255.86L610.162 256.36ZM416.929 591.05L610.162 256.36L609.296 255.86L416.063 590.55L416.929 591.05ZM309.263 591.3H416.496V590.3H309.263V591.3ZM460.745 327.424L308.83 590.55L309.696 591.05L461.611 327.924L460.745 327.424ZM482.419 363.464L461.611 327.424L460.745 327.924L481.553 363.964L482.419 363.464ZM536.263 363.214H481.986V364.214H536.263V363.214ZM536.763 363.214H536.263V364.214H536.763V363.214ZM536.263 363.214V363.714H537.263V363.214H536.263ZM536.263 282.04V363.214H537.263V282.04H536.263ZM416.207 590.8H308.974V591.8H416.207V590.8ZM392.607 633.176L416.64 591.55L415.774 591.05L391.741 632.676L392.607 633.176ZM284.941 633.426H392.174V632.426H284.941V633.426ZM308.541 591.05L284.508 632.676L285.374 633.176L309.407 591.55L308.541 591.05ZM308.397 590.8H192V591.8H308.397V590.8ZM284.797 633.176L308.83 591.55L307.964 591.05L283.931 632.676L284.797 633.176ZM284.508 633.676L284.797 633.176L283.931 632.676L283.642 633.176L284.508 633.676ZM284.652 632.926H284.075V633.926H284.652V632.926ZM392.463 632.926H284.652V633.926H392.463V632.926ZM416.352 591.05L392.03 633.176L392.896 633.676L417.218 591.55L416.352 591.05ZM548.334 590.8H416.785V591.8H548.334V590.8ZM548.834 590.8H548.334V591.8H548.834V590.8ZM616.262 658.228C616.262 620.989 586.073 590.8 548.834 590.8V591.8C585.521 591.8 615.262 621.541 615.262 658.228H616.262ZM611.011 684.361C614.393 676.324 616.262 667.494 616.262 658.228H615.262C615.262 667.359 613.42 676.057 610.089 683.973L611.011 684.361ZM192 684.667H610.55V683.667H192V684.667ZM145.067 637.733C145.067 663.654 166.079 684.667 192 684.667V683.667C166.632 683.667 146.067 663.102 146.067 637.733H145.067ZM192 590.8C166.079 590.8 145.067 611.813 145.067 637.733H146.067C146.067 612.365 166.632 591.8 192 591.8V590.8ZM831.999 590.8H716.935V591.8H831.999V590.8ZM878.933 637.733C878.933 611.813 857.92 590.8 831.999 590.8V591.8C857.367 591.8 877.933 612.365 877.933 637.733H878.933ZM831.999 684.667C857.92 684.667 878.933 663.654 878.933 637.733H877.933C877.933 663.102 857.367 683.667 831.999 683.667V684.667ZM770.552 684.667H831.999V683.667H770.552V684.667ZM716.502 591.55L770.119 684.417L770.985 683.917L717.368 591.05L716.502 591.55ZM831.999 590.3H716.646V591.3H831.999V590.3ZM879.433 637.733C879.433 611.537 858.196 590.3 831.999 590.3V591.3C857.644 591.3 878.433 612.089 878.433 637.733H879.433ZM831.999 685.167C858.196 685.167 879.433 663.93 879.433 637.733H878.433C878.433 663.378 857.644 684.167 831.999 684.167V685.167ZM770.84 685.167H831.999V684.167H770.84V685.167ZM817.312 764.159L771.273 684.417L770.407 684.917L816.446 764.659L817.312 764.159ZM799.951 828.954C822.638 815.856 830.411 786.846 817.312 764.159L816.446 764.659C829.269 786.868 821.659 815.266 799.451 828.088L799.951 828.954ZM735.155 811.592C748.254 834.279 777.264 842.052 799.951 828.954L799.451 828.088C777.242 840.91 748.844 833.301 736.021 811.092L735.155 811.592ZM594.037 567.168L735.155 811.592L736.021 811.092L594.903 566.668L594.037 567.168ZM565.849 514.099C571.664 524.17 581.449 542.939 594.026 567.148L594.913 566.687C582.342 542.489 572.544 523.694 566.715 513.599L565.849 514.099ZM583.342 361.202C545.484 401.658 536.706 463.621 565.849 514.099L566.715 513.599C537.798 463.513 546.506 402.029 584.072 361.885L583.342 361.202ZM583.441 361.096L583.342 361.202L584.072 361.885L584.171 361.78L583.441 361.096ZM583.526 361.006L583.442 361.096L584.171 361.78L584.255 361.691L583.526 361.006ZM583.701 360.82L583.526 361.006L584.254 361.691L584.429 361.506L583.701 360.82ZM584.759 361.365L584.498 360.913L583.632 361.413L583.893 361.865L584.759 361.365ZM717.079 590.55L584.759 361.365L583.893 361.865L716.213 591.05L717.079 590.55ZM816.879 764.409L770.696 684.417L769.83 684.917L816.013 764.909L816.879 764.409ZM799.701 828.521C822.148 815.561 829.84 786.857 816.879 764.409L816.013 764.909C828.697 786.879 821.17 814.971 799.201 827.655L799.701 828.521ZM735.588 811.342C748.549 833.79 777.253 841.481 799.701 828.521L799.201 827.655C777.231 840.339 749.139 832.812 736.454 810.842L735.588 811.342ZM594.475 566.927L735.588 811.342L736.454 810.842L595.341 566.427L594.475 566.927ZM566.282 513.849C572.103 523.931 581.892 542.709 594.465 566.908L595.352 566.447C582.785 542.258 572.983 523.455 567.148 513.349L566.282 513.849ZM583.603 361.655C545.979 401.957 537.279 463.613 566.282 513.849L567.148 513.349C538.371 463.505 547.002 402.327 584.334 362.337L583.603 361.655ZM716.502 590.55L584.402 361.746L583.536 362.246L715.636 591.05L716.502 590.55ZM705.483 591.3H716.069V590.3H705.483V591.3ZM704.983 591.3H705.483V590.3H704.983V591.3ZM705.483 591.3V590.8H704.483V591.3H705.483ZM705.483 684.167V591.3H704.483V684.167H705.483ZM705.483 684.667V684.167H704.483V684.667H705.483ZM705.483 684.167H704.983V685.167H705.483V684.167ZM770.263 684.167H705.483V685.167H770.263V684.167ZM705.483 684.667H769.974V683.667H705.483V684.667ZM704.983 591.3V684.167H705.983V591.3H704.983ZM716.357 590.8H705.483V591.8H716.357V590.8ZM770.407 683.917L716.79 591.05L715.924 591.55L769.541 684.417L770.407 683.917ZM336.199 731.363C323.735 710.931 301.236 697.289 275.549 697.289V698.289C300.873 698.289 323.056 711.737 335.345 731.884L336.199 731.363ZM290.599 810.866L336.205 731.873L335.339 731.373L289.733 810.366L290.599 810.866ZM225.804 828.228C248.491 841.326 277.5 833.553 290.599 810.866L289.733 810.366C276.91 832.575 248.512 840.184 226.304 827.362L225.804 828.228ZM208.442 763.433C195.343 786.12 203.117 815.13 225.804 828.228L226.304 827.362C204.095 814.54 196.486 786.142 209.308 763.933L208.442 763.433ZM241.945 705.404L208.442 763.433L209.308 763.933L242.811 705.904L241.945 705.404ZM275.549 697.289C263.558 697.289 252.207 700.138 242.153 705.208L242.603 706.101C252.52 701.1 263.718 698.289 275.549 698.289V697.289ZM242.303 705.784L208.875 763.683L209.741 764.183L243.169 706.284L242.303 705.784ZM275.549 697.789C263.692 697.789 252.464 700.594 242.512 705.587L242.96 706.48C252.777 701.556 263.851 698.789 275.549 698.789V697.789ZM335.616 731.369C323.208 711.221 300.947 697.789 275.549 697.789V698.789C300.586 698.789 322.531 712.029 334.765 731.893L335.616 731.369ZM290.166 810.616L335.624 731.881L334.758 731.381L289.3 810.116L290.166 810.616ZM226.054 827.795C248.501 840.755 277.205 833.064 290.166 810.616L289.3 810.116C276.616 832.086 248.523 839.613 226.554 826.929L226.054 827.795ZM208.875 763.683C195.914 786.131 203.606 814.835 226.054 827.795L226.554 826.929C204.584 814.245 197.057 786.152 209.741 764.183L208.875 763.683Z" fill="white" mask="url(#path-3-inside-1)"/>
<path d="M892.175 296.643C891.708 272.668 891.261 250.02 891.261 228.109C891.261 210.943 876.995 197.027 859.388 197.027C723.075 197.027 619.291 158.825 532.782 76.8009C520.406 65.0643 500.713 65.0684 488.342 76.8009C401.841 158.825 298.074 197.027 161.77 197.027C144.167 197.027 129.896 210.943 129.896 228.109C129.896 250.024 129.454 272.681 128.982 296.66C124.614 519.772 118.63 825.335 500.122 954.284C503.505 955.428 507.032 956 510.56 956C514.087 956 517.619 955.428 520.997 954.284C902.519 825.33 896.544 519.759 892.175 296.643Z" fill="#38AB43"/>
<path d="M824.825 333.911C824.44 314.087 824.073 295.359 824.073 277.241C824.073 263.046 812.321 251.539 797.818 251.539C685.538 251.539 600.051 219.95 528.793 152.124C518.6 142.419 502.378 142.423 492.188 152.124C420.938 219.95 335.465 251.539 223.191 251.539C208.692 251.539 196.937 263.046 196.937 277.241C196.937 295.362 196.573 314.097 196.184 333.925C192.586 518.416 187.657 771.085 501.892 877.714C504.678 878.659 507.584 879.132 510.489 879.132C513.394 879.132 516.303 878.659 519.086 877.714C833.346 771.082 828.424 518.406 824.825 333.911Z" fill="#222222"/>
<g clip-path="url(#clip1)">
<path fill-rule="evenodd" clip-rule="evenodd" d="M300.867 466.27L300.872 466.279L439.778 367.484V420.145L337.898 492.607L490.685 601.279V681.595L300.867 546.581V466.27ZM712.887 466.27L712.877 466.279L573.976 367.484V420.145L675.856 492.607L523.064 601.279V681.595L712.887 546.581V466.27ZM535.974 345.616H477.785V489.27L444.912 465.886L407.442 492.536L506.877 563.264L606.317 492.536L568.846 465.886L535.974 489.27V345.616Z" fill="#FF872C"/>
</g>
</g>
</g>
<defs>
<clipPath id="clip0">
<rect width="1024" height="1024" fill="white"/>
</clipPath>
<clipPath id="clip1">
<rect width="419.506" height="336.61" fill="white" transform="translate(300.867 345.616)"/>
</clipPath>
</defs>
</svg>
