<svg width="291" height="240" viewBox="0 0 291 240" fill="none" xmlns="http://www.w3.org/2000/svg">
<g clip-path="url(#clip0)">
<path d="M27 79.423H82.514C89.672 79.423 96.544 82.27 101.606 87.331C106.667 92.393 109.514 99.265 109.514 106.423V135.185C109.514 142.343 106.667 149.215 101.606 154.277C96.544 159.338 89.672 162.185 82.514 162.185H27C19.842 162.185 12.97 159.338 7.908 154.277C2.847 149.215 0 142.343 0 135.185V106.423C0 99.265 2.847 92.393 7.908 87.331C12.97 82.27 19.842 79.423 27 79.423Z" fill="#2BA8BE"/>
<path d="M112.27 157.169H167.784C174.942 157.169 181.814 160.016 186.876 165.077C191.937 170.139 194.784 177.011 194.784 184.169V212.931C194.784 220.089 191.937 226.961 186.876 232.023C181.814 237.084 174.942 239.931 167.784 239.931H112.27C105.112 239.931 98.24 237.084 93.178 232.023C88.117 226.961 85.27 220.089 85.27 212.931V184.169C85.27 177.011 88.117 170.139 93.178 165.077C98.24 160.016 105.112 157.169 112.27 157.169Z" fill="#2BA8BE"/>
<path d="M207.572 79.423H263.086C270.244 79.423 277.116 82.27 282.178 87.331C287.239 92.393 290.086 99.265 290.086 106.423V135.185C290.086 142.343 287.239 149.215 282.178 154.277C277.116 159.338 270.244 162.185 263.086 162.185H207.572C200.414 162.185 193.542 159.338 188.48 154.277C183.419 149.215 180.572 142.343 180.572 135.185V106.423C180.572 99.265 183.419 92.393 188.48 87.331C193.542 82.27 200.414 79.423 207.572 79.423Z" fill="#2BA8BE"/>
<path d="M112.27 0.0039978H167.784C174.942 0.0039978 181.814 2.851 186.876 7.912C191.937 12.974 194.784 19.846 194.784 27.004V55.767C194.784 62.925 191.937 69.797 186.876 74.859C181.814 79.92 174.942 82.767 167.784 82.767H112.27C105.112 82.767 98.24 79.92 93.178 74.859C88.117 69.797 85.27 62.925 85.27 55.767V27.004C85.27 19.846 88.117 12.974 93.178 7.912C98.24 2.851 105.112 0.0039978 112.27 0.0039978Z" fill="#2BA8BE"/>
<path d="M54.339 124.566C54.339 101.516 63.505 79.387 79.804 63.089C96.102 46.79 118.231 37.624 141.281 37.624C164.331 37.624 186.46 46.79 202.758 63.089C219.057 79.387 228.223 101.516 228.223 124.566C228.223 147.616 219.057 169.745 202.758 186.043C186.46 202.342 164.331 211.508 141.281 211.508C118.231 211.508 96.102 202.342 79.804 186.043C63.505 169.745 54.339 147.616 54.339 124.566Z" fill="#2BA8BE"/>
<path d="M57.683 124.566C57.683 102.403 66.497 81.125 82.168 65.453C97.84 49.782 119.118 40.968 141.281 40.968C163.444 40.968 184.722 49.782 200.394 65.453C216.065 81.125 224.879 102.403 224.879 124.566C224.879 142.217 219.288 159.423 208.913 173.704C198.538 187.984 183.902 198.618 167.114 204.072C150.327 209.527 132.235 209.527 115.448 204.072C98.66 198.618 84.024 187.984 73.649 173.704C63.274 159.423 57.683 142.217 57.683 124.566Z" fill="#CEF6FF"/>
<path d="M27.344 82.767H78.826C85.189 82.767 91.297 85.297 95.797 89.796C100.296 94.296 102.826 100.404 102.826 106.767V134.841C102.826 141.204 100.296 147.312 95.797 151.812C91.297 156.311 85.189 158.841 78.826 158.841H27.344C20.981 158.841 14.873 156.311 10.373 151.812C5.87399 147.312 3.34399 141.204 3.34399 134.841V106.767C3.34399 100.404 5.87399 94.296 10.373 89.796C14.873 85.297 20.981 82.767 27.344 82.767Z" fill="#CEF6FF"/>
<path d="M211.26 82.767H262.742C269.105 82.767 275.213 85.297 279.713 89.796C284.212 94.296 286.742 100.404 286.742 106.767V134.841C286.742 141.204 284.212 147.312 279.713 151.812C275.213 156.311 269.105 158.841 262.742 158.841H211.26C204.897 158.841 198.789 156.311 194.289 151.812C189.79 147.312 187.26 141.204 187.26 134.841V106.767C187.26 100.404 189.79 94.296 194.289 89.796C198.789 85.297 204.897 82.767 211.26 82.767Z" fill="#CEF6FF"/>
<path d="M113.614 3.34799H166.44C173.068 3.34799 179.431 5.98399 184.118 10.67C188.804 15.357 191.44 21.72 191.44 28.348V51.915C191.44 58.543 188.804 64.906 184.118 69.593C179.431 74.279 173.068 76.915 166.44 76.915H113.614C106.986 76.915 100.623 74.279 95.936 69.593C91.25 64.906 88.614 58.543 88.614 51.915V28.348C88.614 21.72 91.25 15.357 95.936 10.67C100.623 5.98399 106.986 3.34799 113.614 3.34799Z" fill="#CEF6FF"/>
<path d="M113.614 162.185H166.44C173.068 162.185 179.431 164.821 184.118 169.507C188.804 174.194 191.44 180.557 191.44 187.185V210.751C191.44 217.379 188.804 223.742 184.118 228.429C179.431 233.115 173.068 235.751 166.44 235.751H113.614C106.986 235.751 100.623 233.115 95.936 228.429C91.25 223.742 88.614 217.379 88.614 210.751V187.185C88.614 180.557 91.25 174.194 95.936 169.507C100.623 164.821 106.986 162.185 113.614 162.185Z" fill="#CEF6FF"/>
<path d="M127.561 178.905H152.552C153.347 178.905 154.111 179.221 154.673 179.784C155.236 180.346 155.552 181.11 155.552 181.905V225.105C155.552 225.9 155.236 226.664 154.673 227.226C154.111 227.789 153.347 228.105 152.552 228.105H127.561C126.766 228.105 126.002 227.789 125.44 227.226C124.877 226.664 124.561 225.9 124.561 225.105V181.905C124.561 181.11 124.877 180.346 125.44 179.784C126.002 179.221 126.766 178.905 127.561 178.905Z" fill="#727272"/>
<path d="M126.561 179.565H153.552C154.082 179.565 154.591 179.776 154.966 180.151C155.341 180.526 155.552 181.035 155.552 181.565V226.765C155.552 227.295 155.341 227.804 154.966 228.179C154.591 228.554 154.082 228.765 153.552 228.765H126.561C126.031 228.765 125.522 228.554 125.147 228.179C124.772 227.804 124.561 227.295 124.561 226.765V181.565C124.561 181.035 124.772 180.526 125.147 180.151C125.522 179.776 126.031 179.565 126.561 179.565Z" fill="#4A4A4A"/>
<path d="M127.061 181.152H153.053C153.318 181.152 153.573 181.257 153.76 181.445C153.948 181.632 154.053 181.887 154.053 182.152V226.405C154.053 226.67 153.948 226.925 153.76 227.112C153.573 227.3 153.318 227.405 153.053 227.405H127.061C126.796 227.405 126.541 227.3 126.354 227.112C126.166 226.925 126.061 226.67 126.061 226.405V182.152C126.061 181.887 126.166 181.632 126.354 181.445C126.541 181.257 126.796 181.152 127.061 181.152Z" fill="#E8F8FF"/>
<path d="M133.661 179.565H146.4V179.867C146.4 181.524 145.057 182.867 143.4 182.867H136.661C135.004 182.867 133.661 181.524 133.661 179.867V179.565Z" fill="#4A4A4A"/>
<path d="M137.211 181.381C137.211 181.646 137.316 181.901 137.504 182.088C137.691 182.276 137.946 182.381 138.211 182.381C138.476 182.381 138.731 182.276 138.918 182.088C139.106 181.901 139.211 181.646 139.211 181.381C139.211 181.116 139.106 180.861 138.918 180.674C138.731 180.486 138.476 180.381 138.211 180.381C137.946 180.381 137.691 180.486 137.504 180.674C137.316 180.861 137.211 181.116 137.211 181.381Z" fill="#1D1D1D"/>
<path d="M140.851 181.381C140.851 181.646 140.956 181.901 141.144 182.088C141.331 182.276 141.586 182.381 141.851 182.381C142.116 182.381 142.371 182.276 142.558 182.088C142.746 181.901 142.851 181.646 142.851 181.381C142.851 181.116 142.746 180.861 142.558 180.674C142.371 180.486 142.116 180.381 141.851 180.381C141.586 180.381 141.331 180.486 141.144 180.674C140.956 180.861 140.851 181.116 140.851 181.381Z" fill="#1D1D1D"/>
<path d="M107.472 15.052H173.078C174.138 15.052 175.157 15.474 175.906 16.224C176.656 16.973 177.078 17.992 177.078 19.052V56.74C177.078 57.8 176.656 58.819 175.906 59.568C175.157 60.318 174.138 60.74 173.078 60.74H107.472C106.412 60.74 105.393 60.318 104.644 59.568C103.894 58.819 103.472 57.8 103.472 56.74V19.052C103.472 17.992 103.894 16.973 104.644 16.224C105.393 15.474 106.412 15.052 107.472 15.052Z" fill="#4A4A4A"/>
<path d="M108.558 17.215H171.694C172.489 17.215 173.253 17.531 173.815 18.094C174.378 18.656 174.694 19.42 174.694 20.215V51.252C174.694 52.047 174.378 52.811 173.815 53.373C173.253 53.936 172.489 54.252 171.694 54.252H108.558C107.763 54.252 106.999 53.936 106.437 53.373C105.874 52.811 105.558 52.047 105.558 51.252V20.215C105.558 19.42 105.874 18.656 106.437 18.094C106.999 17.531 107.763 17.215 108.558 17.215Z" fill="white"/>
<path d="M100.513 63.984H179.142C179.617 63.984 180.083 64.109 180.494 64.346C180.905 64.583 181.247 64.925 181.484 65.336C181.721 65.747 181.846 66.213 181.846 66.688C181.846 67.163 181.721 67.629 181.484 68.04C181.246 68.451 180.905 68.792 180.494 69.029C180.083 69.266 179.617 69.391 179.142 69.391H100.513C99.796 69.391 99.108 69.106 98.602 68.599C98.095 68.093 97.81 67.405 97.81 66.688C97.81 66.213 97.935 65.747 98.172 65.336C98.409 64.925 98.75 64.584 99.161 64.346C99.572 64.109 100.038 63.984 100.513 63.984Z" fill="#4A4A4A"/>
<path d="M103.913 58.848L97.81 64.525H181.846L176.838 58.848H103.913Z" fill="#808080"/>
<path d="M104.366 59.523H176.184L177.823 61.415H102.429L104.366 59.523Z" fill="#6B6B6B"/>
<path d="M102.131 61.821H177.972L179.462 63.713H99.598L102.131 61.821Z" fill="#6B6B6B"/>
<path d="M174.439 67.093C174.439 67.358 174.544 67.613 174.732 67.8C174.919 67.988 175.174 68.093 175.439 68.093C175.704 68.093 175.959 67.988 176.146 67.8C176.334 67.613 176.439 67.358 176.439 67.093C176.439 66.828 176.334 66.573 176.146 66.386C175.959 66.198 175.704 66.093 175.439 66.093C175.174 66.093 174.919 66.198 174.732 66.386C174.544 66.573 174.439 66.828 174.439 67.093Z" fill="#FFF8EC"/>
<path d="M149.455 -4.29401L160.672 2.08199L117.686 77.704L106.469 71.328L149.455 -4.29401Z" fill="white" fill-opacity="0.1"/>
<path d="M162.469 3.97L168.62 7.466L125.634 83.088L119.483 79.592L162.469 3.97Z" fill="white" fill-opacity="0.1"/>
<path d="M163.016 19.232C163.016 16.351 164.162 13.585 166.199 11.547C168.237 9.51001 171.003 8.36401 173.884 8.36401C176.765 8.36401 179.531 9.51001 181.569 11.547C183.606 13.585 184.752 16.351 184.752 19.232C184.752 22.113 183.606 24.879 181.569 26.917C179.531 28.954 176.765 30.1 173.884 30.1C171.003 30.1 168.237 28.954 166.199 26.917C164.162 24.879 163.016 22.113 163.016 19.232Z" fill="#38AB43"/>
<path d="M165.733 19.232C165.733 17.511 166.278 15.833 167.29 14.441C168.301 13.049 169.728 12.012 171.365 11.48C173.002 10.948 174.766 10.948 176.403 11.48C178.04 12.012 179.467 13.049 180.478 14.441C181.49 15.833 182.035 17.511 182.035 19.232C182.035 20.953 181.49 22.631 180.478 24.023C179.467 25.415 178.04 26.452 176.403 26.984C174.766 27.516 173.002 27.516 171.365 26.984C169.728 26.452 168.301 25.415 167.29 24.023C166.278 22.631 165.733 20.953 165.733 19.232Z" fill="#E9FFEB"/>
<path d="M170.668 20.782H169.266L173.21 24.122L177.416 15.156H176.014L173.034 22.716L170.668 20.782Z" fill="#38AB43"/>
<path d="M200.153 152.507L166.813 185.847" stroke="white"/>
<path d="M80.608 154.308L113.948 187.647" stroke="white"/>
<path d="M166.615 72.381L199.954 105.721" stroke="white"/>
<path d="M113.948 74.392L80.608 107.732" stroke="white"/>
<path d="M144.625 182.249C144.625 179.954 145.352 177.717 146.701 175.861C148.049 174.004 149.952 172.622 152.135 171.913C154.317 171.204 156.669 171.204 158.851 171.913C161.034 172.622 162.937 174.004 164.285 175.861C165.634 177.717 166.361 179.954 166.361 182.249C166.361 184.544 165.634 186.781 164.285 188.637C162.937 190.494 161.034 191.876 158.851 192.585C156.669 193.294 154.317 193.294 152.135 192.585C149.952 191.876 148.049 190.494 146.701 188.637C145.352 186.781 144.625 184.544 144.625 182.249Z" fill="#38AB43"/>
<path d="M147.342 182.249C147.342 180.088 148.201 178.013 149.729 176.485C151.257 174.957 153.332 174.098 155.493 174.098C157.654 174.098 159.729 174.957 161.257 176.485C162.785 178.013 163.644 180.088 163.644 182.249C163.644 184.41 162.785 186.485 161.257 188.013C159.729 189.541 157.654 190.4 155.493 190.4C153.332 190.4 151.257 189.541 149.729 188.013C148.201 186.485 147.342 184.41 147.342 182.249Z" fill="#E9FFEB"/>
<path d="M152.276 183.799H150.874L154.818 187.139L159.025 178.173H157.622L154.643 185.733L152.276 183.799Z" fill="#38AB43"/>
<path d="M209.781 133.625H218.891V149.646H209.781V133.625Z" fill="#2D2D2D"/>
<path d="M205.353 147.408C205.575 147.229 205.852 147.132 206.138 147.132H222.533C222.818 147.132 223.095 147.229 223.318 147.408C224.245 148.15 223.721 149.645 222.533 149.645H206.138C204.95 149.645 204.425 148.15 205.353 147.408Z" fill="#2D2D2D"/>
<path d="M186.08 97.814H242.905C243.7 97.814 244.464 98.13 245.026 98.693C245.589 99.255 245.905 100.019 245.905 100.814V133.766C245.905 134.561 245.589 135.325 245.026 135.887C244.464 136.45 243.7 136.766 242.905 136.766H186.08C185.285 136.766 184.521 136.45 183.959 135.887C183.396 135.325 183.08 134.561 183.08 133.766V100.814C183.08 100.019 183.396 99.255 183.959 98.693C184.521 98.13 185.285 97.814 186.08 97.814Z" fill="#4A4A4A"/>
<path d="M188.04 100.775H240.663C241.193 100.775 241.702 100.986 242.077 101.361C242.452 101.736 242.663 102.245 242.663 102.775V131.712C242.663 132.242 242.452 132.751 242.077 133.126C241.702 133.501 241.193 133.712 240.663 133.712H188.04C187.51 133.712 187.001 133.501 186.626 133.126C186.251 132.751 186.04 132.242 186.04 131.712V102.775C186.04 102.245 186.251 101.736 186.626 101.361C187.001 100.986 187.51 100.775 188.04 100.775Z" fill="white"/>
<path d="M255.361 97.814H268.491C270.082 97.814 271.609 98.447 272.734 99.571C273.858 100.696 274.491 102.223 274.491 103.814V143.645C274.491 145.236 273.858 146.763 272.734 147.888C271.609 149.012 270.082 149.645 268.491 149.645H255.361C253.77 149.645 252.243 149.012 251.118 147.888C249.994 146.763 249.361 145.236 249.361 143.645V103.814C249.361 102.223 249.994 100.696 251.118 99.571C252.243 98.447 253.77 97.814 255.361 97.814Z" fill="#393939"/>
<path d="M251.874 101.898H271.978V105.982H251.874V101.898Z" fill="#5B5B5B"/>
<path d="M251.874 107.238H271.978V111.322H251.874V107.238Z" fill="#5B5B5B"/>
<path d="M259.099 133.782C259.099 132.991 259.414 132.231 259.973 131.672C260.532 131.113 261.292 130.798 262.083 130.798C262.874 130.798 263.634 131.113 264.193 131.672C264.752 132.231 265.067 132.991 265.067 133.782C265.067 134.573 264.752 135.333 264.193 135.892C263.634 136.451 262.874 136.766 262.083 136.766C261.292 136.766 260.532 136.451 259.973 135.892C259.414 135.333 259.099 134.573 259.099 133.782Z" fill="#5B5B5B"/>
<path d="M260.984 141.635C260.983 141.402 261.056 141.175 261.193 140.987C261.329 140.798 261.522 140.658 261.743 140.586C261.964 140.514 262.203 140.514 262.424 140.586C262.645 140.658 262.838 140.798 262.974 140.987C263.111 141.175 263.184 141.402 263.183 141.635C263.184 141.868 263.111 142.095 262.974 142.283C262.838 142.472 262.645 142.612 262.424 142.684C262.203 142.756 261.964 142.756 261.743 142.684C261.522 142.612 261.329 142.472 261.193 142.283C261.056 142.095 260.983 141.868 260.984 141.635Z" fill="#6DB625"/>
<path d="M261.08 141.703C261.08 141.438 261.185 141.183 261.373 140.996C261.56 140.808 261.815 140.703 262.08 140.703C262.345 140.703 262.6 140.808 262.787 140.996C262.975 141.183 263.08 141.438 263.08 141.703C263.08 141.968 262.975 142.223 262.787 142.41C262.6 142.598 262.345 142.703 262.08 142.703C261.815 142.703 261.56 142.598 261.373 142.41C261.185 142.223 261.08 141.968 261.08 141.703Z" fill="#C1FF84"/>
<path d="M259.154 101.158C259.154 98.277 260.3 95.511 262.337 93.473C264.375 91.436 267.141 90.29 270.022 90.29C272.903 90.29 275.669 91.436 277.707 93.473C279.744 95.511 280.89 98.277 280.89 101.158C280.89 104.039 279.744 106.805 277.707 108.843C275.669 110.88 272.903 112.026 270.022 112.026C267.141 112.026 264.375 110.88 262.337 108.843C260.3 106.805 259.154 104.039 259.154 101.158Z" fill="#38AB43"/>
<path d="M261.871 101.158C261.871 98.997 262.73 96.922 264.258 95.394C265.786 93.866 267.861 93.007 270.022 93.007C272.183 93.007 274.258 93.866 275.786 95.394C277.314 96.922 278.173 98.997 278.173 101.158C278.173 103.319 277.314 105.394 275.786 106.922C274.258 108.45 272.183 109.309 270.022 109.309C267.861 109.309 265.786 108.45 264.258 106.922C262.73 105.394 261.871 103.319 261.871 101.158Z" fill="#E9FFEB"/>
<path d="M266.806 102.709H265.403L269.347 106.049L273.554 97.083H272.152L269.172 104.642L266.806 102.709Z" fill="#38AB43"/>
<path d="M21.72 93.634H86.122C87.448 93.634 88.72 94.161 89.658 95.098C90.595 96.036 91.122 97.308 91.122 98.634V135.26C91.122 136.586 90.595 137.858 89.658 138.796C88.72 139.733 87.448 140.26 86.122 140.26H21.72C20.394 140.26 19.122 139.733 18.184 138.796C17.247 137.858 16.72 136.586 16.72 135.26V98.634C16.72 97.308 17.247 96.036 18.184 95.098C19.122 94.161 20.394 93.634 21.72 93.634Z" fill="#4A4A4A"/>
<path fill-rule="evenodd" clip-rule="evenodd" d="M55.634 135.404C55.212 135.503 54.9 135.85 54.9 136.264C54.9 136.678 55.212 137.026 55.634 137.124C55.3 137.671 54.658 138.041 53.921 138.041C52.84 138.041 51.963 137.245 51.963 136.264C51.963 135.283 52.84 134.488 53.921 134.488C54.658 134.488 55.3 134.858 55.634 135.404Z" fill="#6D6D6D"/>
<path d="M19.188 94.967H88.654C88.919 94.967 89.174 95.072 89.361 95.26C89.549 95.447 89.654 95.702 89.654 95.967V132.6C89.654 132.865 89.549 133.12 89.361 133.307C89.174 133.495 88.919 133.6 88.654 133.6H19.188C18.923 133.6 18.668 133.495 18.481 133.307C18.293 133.12 18.188 132.865 18.188 132.6V95.967C18.188 95.702 18.293 95.447 18.481 95.26C18.668 95.072 18.923 94.967 19.188 94.967Z" fill="white"/>
<path d="M50.245 140.927C50.806 140.377 51.56 140.069 52.345 140.069H55.662C56.447 140.069 57.201 140.377 57.762 140.927L63.653 146.699C65.573 148.58 64.241 151.842 61.554 151.842H46.453C43.765 151.842 42.434 148.58 44.354 146.699L50.245 140.927Z" fill="#F28937"/>
<path d="M50.245 140.927C50.806 140.377 51.56 140.069 52.345 140.069H55.662C56.447 140.069 57.201 140.377 57.762 140.927L63.653 146.699C65.573 148.58 64.241 151.842 61.554 151.842H46.453C43.765 151.842 42.434 148.58 44.354 146.699L50.245 140.927Z" fill="#373737"/>
<path d="M58.016 141.312H49.814L51.103 139.934H56.727L58.016 141.312Z" fill="#A8A8A8"/>
<path d="M38.557 150.752H69.69C69.863 150.752 70.03 150.821 70.152 150.944C70.275 151.066 70.344 151.233 70.344 151.406C70.344 151.579 70.275 151.746 70.152 151.868C70.03 151.991 69.863 152.06 69.69 152.06H38.557C38.384 152.06 38.217 151.991 38.095 151.868C37.972 151.746 37.903 151.579 37.903 151.406C37.903 151.233 37.972 151.066 38.095 150.944C38.217 150.821 38.384 150.752 38.557 150.752Z" fill="#4A4A4A"/>
<path d="M51.624 143.78C52.195 143.218 52.964 142.904 53.765 142.904H54.242C55.043 142.904 55.812 143.218 56.383 143.78C58.329 145.696 56.973 149.008 54.242 149.008H53.765C51.035 149.008 49.678 145.696 51.624 143.78Z" fill="#93DFF0"/>
<path d="M76.074 97.814C76.074 94.933 77.22 92.167 79.257 90.129C81.295 88.092 84.061 86.946 86.942 86.946C89.823 86.946 92.589 88.092 94.627 90.129C96.664 92.167 97.81 94.933 97.81 97.814C97.81 100.695 96.664 103.461 94.627 105.499C92.589 107.536 89.823 108.682 86.942 108.682C84.061 108.682 81.295 107.536 79.257 105.499C77.22 103.461 76.074 100.695 76.074 97.814Z" fill="#38AB43"/>
<path d="M78.791 97.814C78.791 95.653 79.65 93.578 81.178 92.05C82.706 90.522 84.781 89.663 86.942 89.663C89.103 89.663 91.178 90.522 92.706 92.05C94.234 93.578 95.093 95.653 95.093 97.814C95.093 99.975 94.234 102.05 92.706 103.578C91.178 105.106 89.103 105.965 86.942 105.965C84.781 105.965 82.706 105.106 81.178 103.578C79.65 102.05 78.791 99.975 78.791 97.814Z" fill="#E9FFEB"/>
<path d="M83.726 99.365H82.324L86.268 102.705L90.475 93.739H89.073L86.093 101.298L83.726 99.365Z" fill="#38AB43"/>
<path d="M191 69.1C191 66.545 191.809 64.055 193.311 61.988C194.813 59.921 196.931 58.382 199.361 57.592C201.791 56.803 204.409 56.803 206.839 57.592C209.269 58.382 211.387 59.921 212.889 61.988C214.391 64.055 215.2 66.545 215.2 69.1C215.2 71.655 214.391 74.145 212.889 76.212C211.387 78.279 209.269 79.818 206.839 80.608C204.409 81.397 201.791 81.397 199.361 80.608C196.931 79.818 194.813 78.279 193.311 76.212C191.809 74.145 191 71.655 191 69.1Z" fill="#93DFF0"/>
<path d="M207.514 66.618C207.514 65.395 207.077 64.222 206.298 63.357C205.52 62.493 204.464 62.007 203.364 62.007C202.263 62.007 201.207 62.493 200.429 63.357C199.65 64.222 199.213 65.395 199.213 66.618H200.785C200.785 65.858 201.056 65.13 201.54 64.592C202.024 64.055 202.68 63.753 203.364 63.753C204.048 63.753 204.704 64.055 205.187 64.592C205.671 65.13 205.943 65.858 205.943 66.618H207.514Z" fill="white"/>
<path fill-rule="evenodd" clip-rule="evenodd" d="M201.676 66.004C199.467 66.004 197.676 67.794 197.676 70.004V71.534C197.676 73.743 199.467 75.534 201.676 75.534H205.358C207.568 75.534 209.358 73.743 209.358 71.534V70.004C209.358 67.794 207.568 66.004 205.358 66.004H201.676ZM205.054 70.308C205.054 70.811 204.812 71.257 204.439 71.538V73.997H202.594V71.537C202.221 71.257 201.98 70.811 201.98 70.308C201.98 69.459 202.668 68.771 203.517 68.771C204.366 68.771 205.054 69.459 205.054 70.308Z" fill="white"/>
<path d="M195 175.1C195 171.892 196.276 168.812 198.544 166.544C200.812 164.276 203.892 163 207.1 163C210.308 163 213.388 164.276 215.656 166.544C217.924 168.812 219.2 171.892 219.2 175.1C219.2 178.308 217.924 181.388 215.656 183.656C213.388 185.924 210.308 187.2 207.1 187.2C203.892 187.2 200.812 185.924 198.544 183.656C196.276 181.388 195 178.308 195 175.1Z" fill="#93DFF0"/>
<path d="M211.514 172.618C211.514 171.395 211.077 170.222 210.298 169.358C209.52 168.493 208.464 168.007 207.364 168.007C206.263 168.007 205.207 168.493 204.429 169.358C203.65 170.222 203.213 171.395 203.213 172.618H204.785C204.785 171.858 205.056 171.13 205.54 170.592C206.024 170.055 206.68 169.753 207.364 169.753C208.048 169.753 208.704 170.055 209.187 170.592C209.671 171.13 209.943 171.858 209.943 172.618H211.514Z" fill="white"/>
<path fill-rule="evenodd" clip-rule="evenodd" d="M205.676 172.004C203.467 172.004 201.676 173.794 201.676 176.004V177.534C201.676 179.743 203.467 181.534 205.676 181.534H209.358C211.568 181.534 213.358 179.743 213.358 177.534V176.004C213.358 173.794 211.568 172.004 209.358 172.004H205.676ZM209.054 176.308C209.054 176.811 208.812 177.257 208.439 177.538V179.997H206.594V177.537C206.221 177.257 205.98 176.811 205.98 176.308C205.98 175.459 206.668 174.77 207.517 174.77C208.366 174.77 209.054 175.459 209.054 176.308Z" fill="white"/>
<path d="M65 68.1C65 64.892 66.276 61.812 68.544 59.544C70.812 57.276 73.892 56 77.1 56C80.308 56 83.388 57.276 85.656 59.544C87.924 61.812 89.2 64.892 89.2 68.1C89.2 71.308 87.924 74.388 85.656 76.656C83.388 78.924 80.308 80.2 77.1 80.2C73.892 80.2 70.812 78.924 68.544 76.656C66.276 74.388 65 71.308 65 68.1Z" fill="#93DFF0"/>
<path d="M81.514 65.618C81.514 64.395 81.077 63.222 80.298 62.357C79.52 61.493 78.464 61.007 77.364 61.007C76.263 61.007 75.207 61.493 74.429 62.357C73.65 63.222 73.213 64.395 73.213 65.618H74.785C74.785 64.858 75.056 64.13 75.54 63.592C76.024 63.055 76.68 62.753 77.364 62.753C78.048 62.753 78.704 63.055 79.187 63.592C79.671 64.13 79.943 64.858 79.943 65.618H81.514Z" fill="white"/>
<path fill-rule="evenodd" clip-rule="evenodd" d="M75.676 65.004C73.467 65.004 71.676 66.794 71.676 69.004V70.534C71.676 72.743 73.467 74.534 75.676 74.534H79.358C81.567 74.534 83.358 72.743 83.358 70.534V69.004C83.358 66.794 81.567 65.004 79.358 65.004H75.676ZM79.054 69.308C79.054 69.811 78.813 70.257 78.439 70.538V72.997H76.594V70.537C76.221 70.257 75.98 69.811 75.98 69.308C75.98 68.459 76.668 67.771 77.517 67.771C78.366 67.771 79.054 68.459 79.054 69.308Z" fill="white"/>
<path d="M64 176.1C64 172.892 65.276 169.812 67.544 167.544C69.812 165.276 72.892 164 76.1 164C79.308 164 82.388 165.276 84.656 167.544C86.924 169.812 88.2 172.892 88.2 176.1C88.2 179.308 86.924 182.388 84.656 184.656C82.388 186.924 79.308 188.2 76.1 188.2C72.892 188.2 69.812 186.924 67.544 184.656C65.276 182.388 64 179.308 64 176.1Z" fill="#93DFF0"/>
<path d="M80.514 173.618C80.514 172.395 80.077 171.222 79.298 170.358C78.52 169.493 77.464 169.007 76.364 169.007C75.263 169.007 74.207 169.493 73.429 170.358C72.65 171.222 72.213 172.395 72.213 173.618H73.785C73.785 172.858 74.056 172.13 74.54 171.592C75.024 171.055 75.68 170.753 76.364 170.753C77.048 170.753 77.704 171.055 78.187 171.592C78.671 172.13 78.943 172.858 78.943 173.618H80.514Z" fill="white"/>
<path fill-rule="evenodd" clip-rule="evenodd" d="M74.676 173.004C72.467 173.004 70.676 174.794 70.676 177.004V178.534C70.676 180.743 72.467 182.534 74.676 182.534H78.358C80.567 182.534 82.358 180.743 82.358 178.534V177.004C82.358 174.794 80.567 173.004 78.358 173.004H74.676ZM78.054 177.308C78.054 177.811 77.813 178.257 77.439 178.538V180.997H75.594V178.537C75.221 178.257 74.98 177.811 74.98 177.308C74.98 176.459 75.668 175.77 76.517 175.77C77.366 175.77 78.054 176.459 78.054 177.308Z" fill="white"/>
<path d="M116.932 154.202C116.932 153.787 116.786 153.47 116.493 153.25C116.2 153.025 115.672 152.791 114.911 152.547C114.149 152.298 113.546 152.054 113.102 151.814C111.891 151.16 111.285 150.279 111.285 149.17C111.285 148.594 111.446 148.082 111.769 147.632C112.096 147.178 112.562 146.824 113.167 146.57C113.778 146.316 114.461 146.189 115.218 146.189C115.98 146.189 116.659 146.329 117.254 146.607C117.85 146.88 118.312 147.269 118.639 147.771C118.971 148.274 119.137 148.846 119.137 149.485H116.939C116.939 148.997 116.786 148.619 116.478 148.35C116.17 148.077 115.738 147.94 115.182 147.94C114.645 147.94 114.227 148.055 113.929 148.284C113.631 148.509 113.482 148.807 113.482 149.178C113.482 149.524 113.656 149.815 114.002 150.049C114.354 150.284 114.869 150.503 115.548 150.708C116.798 151.084 117.708 151.551 118.28 152.107C118.851 152.664 119.137 153.357 119.137 154.188C119.137 155.11 118.788 155.835 118.089 156.363C117.391 156.885 116.451 157.146 115.27 157.146C114.449 157.146 113.702 156.998 113.028 156.7C112.354 156.397 111.839 155.984 111.483 155.462C111.131 154.939 110.956 154.334 110.956 153.646H113.16C113.16 154.822 113.863 155.411 115.27 155.411C115.792 155.411 116.2 155.306 116.493 155.096C116.786 154.881 116.932 154.583 116.932 154.202ZM124.308 151.141L126.527 146.336H128.929L125.428 153.133V157H123.194V153.133L119.693 146.336H122.103L124.308 151.141ZM138.575 157H136.378L132.101 149.983V157H129.903V146.336H132.101L136.385 153.367V146.336H138.575V157ZM148.866 153.448C148.783 154.595 148.358 155.499 147.591 156.158C146.83 156.817 145.824 157.146 144.574 157.146C143.207 157.146 142.13 156.688 141.344 155.77C140.562 154.847 140.172 153.582 140.172 151.976V151.324C140.172 150.298 140.353 149.395 140.714 148.614C141.075 147.833 141.59 147.234 142.259 146.819C142.933 146.399 143.714 146.189 144.603 146.189C145.833 146.189 146.825 146.519 147.577 147.178C148.329 147.837 148.763 148.763 148.88 149.954H146.683C146.629 149.266 146.437 148.768 146.104 148.46C145.777 148.147 145.277 147.991 144.603 147.991C143.871 147.991 143.321 148.255 142.955 148.782C142.594 149.305 142.408 150.118 142.398 151.221V152.027C142.398 153.179 142.572 154.021 142.918 154.554C143.27 155.086 143.822 155.352 144.574 155.352C145.252 155.352 145.758 155.198 146.09 154.891C146.427 154.578 146.62 154.097 146.668 153.448H148.866ZM156.725 152.378H152.506V155.235H157.457V157H150.309V146.336H157.442V148.116H152.506V150.657H156.725V152.378ZM158.746 157V146.336H162.027C162.965 146.336 163.802 146.548 164.54 146.973C165.282 147.393 165.86 147.994 166.275 148.775C166.69 149.551 166.898 150.435 166.898 151.426V151.917C166.898 152.908 166.693 153.79 166.283 154.561C165.877 155.333 165.304 155.931 164.562 156.355C163.819 156.78 162.982 156.995 162.049 157H158.746ZM160.943 148.116V155.235H162.005C162.865 155.235 163.521 154.954 163.976 154.393C164.43 153.831 164.662 153.028 164.671 151.983V151.419C164.671 150.335 164.447 149.515 163.998 148.958C163.548 148.396 162.892 148.116 162.027 148.116H160.943Z" fill="#38AB43"/>
<path d="M139.5 97C129.283 97 121 105.283 121 115.5C121 125.717 129.283 134 139.5 134C149.718 134 158 125.717 158 115.5C158 105.283 149.717 97 139.5 97ZM136.106 125.003L127.96 116.857L130.675 114.142L136.106 119.573L148.324 107.354L151.04 110.069L136.106 125.003Z" fill="#38AB43"/>
<path d="M149.932 198.665C149.921 198.071 149.91 197.51 149.91 196.967C149.91 196.541 149.556 196.197 149.12 196.197C145.743 196.197 143.172 195.25 141.028 193.218C140.722 192.927 140.234 192.927 139.927 193.218C137.784 195.25 135.214 196.197 131.837 196.197C131.401 196.197 131.047 196.541 131.047 196.967C131.047 197.51 131.036 198.071 131.024 198.665C130.916 204.193 130.768 211.763 140.219 214.957C140.303 214.986 140.39 215 140.478 215C140.565 215 140.653 214.986 140.736 214.957C150.189 211.763 150.041 204.192 149.932 198.665Z" fill="#38AB43"/>
<path d="M148.313 199.588C148.304 199.097 148.295 198.633 148.295 198.184C148.295 197.832 148.003 197.547 147.644 197.547C144.862 197.547 142.744 196.765 140.979 195.084C140.727 194.844 140.325 194.844 140.072 195.084C138.307 196.765 136.189 197.547 133.408 197.547C133.049 197.547 132.757 197.832 132.757 198.184C132.757 198.633 132.748 199.097 132.739 199.588C132.65 204.159 132.528 210.419 140.313 213.061C140.382 213.084 140.454 213.096 140.526 213.096C140.598 213.096 140.67 213.084 140.739 213.061C148.524 210.419 148.402 204.159 148.313 199.588Z" fill="#222222"/>
<path fill-rule="evenodd" clip-rule="evenodd" d="M135.283 202.867L135.283 202.867L138.724 200.419V201.724L136.2 203.519L139.986 206.212V208.201L135.283 204.857V202.867ZM145.491 202.867L145.49 202.867L142.049 200.419V201.724L144.573 203.519L140.788 206.212V208.201L145.491 204.857V202.867ZM141.108 199.878H139.666V203.437L138.852 202.857L137.923 203.518L140.387 205.27L142.85 203.518L141.922 202.857L141.108 203.437V199.878Z" fill="#FF872C"/>
<path d="M225.374 110.695C225.361 109.993 225.348 109.329 225.348 108.688C225.348 108.185 224.93 107.778 224.415 107.778C220.423 107.778 217.385 106.659 214.852 104.258C214.489 103.914 213.913 103.914 213.551 104.258C211.018 106.659 207.98 107.778 203.989 107.778C203.473 107.778 203.056 108.185 203.056 108.688C203.056 109.33 203.043 109.993 203.029 110.695C202.901 117.228 202.726 126.174 213.895 129.95C213.995 129.983 214.098 130 214.201 130C214.304 130 214.408 129.983 214.507 129.95C225.677 126.174 225.502 117.227 225.374 110.695Z" fill="#38AB43"/>
<path d="M223.461 111.786C223.45 111.205 223.439 110.657 223.439 110.127C223.439 109.711 223.095 109.374 222.67 109.374C219.383 109.374 216.88 108.449 214.793 106.463C214.495 106.179 214.02 106.179 213.722 106.463C211.636 108.449 209.133 109.374 205.846 109.374C205.421 109.374 205.077 109.711 205.077 110.127C205.077 110.657 205.066 111.206 205.055 111.786C204.95 117.188 204.805 124.586 214.006 127.708C214.087 127.736 214.172 127.75 214.258 127.75C214.343 127.75 214.428 127.736 214.509 127.708C223.711 124.586 223.566 117.188 223.461 111.786Z" fill="#222222"/>
<path fill-rule="evenodd" clip-rule="evenodd" d="M208.062 115.661L208.062 115.661L212.129 112.768V114.31L209.146 116.432L213.619 119.614V121.965L208.062 118.012V115.661ZM220.125 115.661L220.125 115.661L216.058 112.768V114.31L219.041 116.432L214.567 119.614V121.965L220.125 118.012V115.661ZM214.945 112.128H213.242V116.334L212.279 115.65L211.182 116.43L214.093 118.501L217.005 116.43L215.908 115.65L214.945 116.334V112.128Z" fill="#FF872C"/>
<path d="M66.0956 107.209C66.0809 106.454 66.0668 105.739 66.0668 105.048C66.0668 104.507 65.617 104.068 65.0618 104.068C60.7636 104.068 57.4912 102.864 54.7634 100.278C54.3732 99.9074 53.7522 99.9076 53.3621 100.278C50.6346 102.864 47.3627 104.068 43.0648 104.068C42.5098 104.068 42.0598 104.507 42.0598 105.048C42.0598 105.739 42.0459 106.454 42.031 107.21C41.8932 114.245 41.7045 123.88 53.7336 127.946C53.8402 127.982 53.9515 128 54.0627 128C54.1739 128 54.2853 127.982 54.3918 127.946C66.4218 123.88 66.2334 114.245 66.0956 107.209Z" fill="#38AB43"/>
<path d="M64.035 108.385C64.0229 107.76 64.0113 107.169 64.0113 106.598C64.0113 106.15 63.6408 105.788 63.1835 105.788C59.6431 105.788 56.9475 104.791 54.7007 102.653C54.3793 102.347 53.8678 102.347 53.5465 102.653C51.2998 104.791 48.6047 105.788 45.0646 105.788C44.6074 105.788 44.2367 106.15 44.2367 106.598C44.2367 107.169 44.2253 107.76 44.213 108.385C44.0995 114.203 43.9441 122.17 53.8524 125.532C53.9403 125.562 54.0319 125.576 54.1235 125.576C54.2151 125.576 54.3069 125.562 54.3946 125.532C64.3037 122.169 64.1485 114.202 64.035 108.385Z" fill="#222222"/>
<path fill-rule="evenodd" clip-rule="evenodd" d="M47.451 112.558L47.4511 112.558L51.831 109.443V111.103L48.6186 113.388L53.4362 116.815V119.347L47.451 115.09V112.558ZM60.4426 112.558L60.4423 112.558L56.0625 109.443V111.103L59.2749 113.388L54.4572 116.815V119.347L60.4426 115.09V112.558ZM54.8642 108.753H53.0294V113.283L51.9929 112.546L50.8114 113.386L53.9468 115.616L57.0823 113.386L55.9007 112.546L54.8642 113.283V108.753Z" fill="#FF872C"/>
<path d="M152.096 29.2095C152.081 28.4535 152.067 27.7394 152.067 27.0485C152.067 26.5072 151.617 26.0684 151.062 26.0684C146.764 26.0684 143.491 24.8638 140.763 22.2775C140.373 21.9074 139.752 21.9076 139.362 22.2775C136.635 24.8638 133.363 26.0684 129.065 26.0684C128.51 26.0684 128.06 26.5072 128.06 27.0485C128.06 27.7395 128.046 28.4539 128.031 29.21C127.893 36.2451 127.705 45.8799 139.734 49.9459C139.84 49.982 139.951 50 140.063 50C140.174 50 140.285 49.982 140.392 49.9459C152.422 45.8798 152.233 36.2447 152.096 29.2095Z" fill="#38AB43"/>
<path d="M150.035 30.3848C150.023 29.7597 150.011 29.1692 150.011 28.5979C150.011 28.1504 149.641 27.7875 149.183 27.7875C145.643 27.7875 142.948 26.7914 140.701 24.6528C140.379 24.3468 139.868 24.3469 139.546 24.6528C137.3 26.7914 134.605 27.7875 131.065 27.7875C130.607 27.7875 130.237 28.1504 130.237 28.5979C130.237 29.1693 130.225 29.7601 130.213 30.3853C130.1 36.2026 129.944 44.1696 139.852 47.5318C139.94 47.5616 140.032 47.5765 140.124 47.5765C140.215 47.5765 140.307 47.5616 140.395 47.5318C150.304 44.1695 150.148 36.2022 150.035 30.3848Z" fill="#222222"/>
<path fill-rule="evenodd" clip-rule="evenodd" d="M133.451 34.5578L133.451 34.5581L137.831 31.4429V33.1034L134.619 35.3883L139.436 38.8148V41.3473L133.451 37.0901V34.5578ZM146.443 34.5578L146.442 34.5581L142.062 31.4429V33.1034L145.275 35.3883L140.457 38.8148V41.3473L146.443 37.0901V34.5578ZM140.864 30.7534H139.029V35.283L137.993 34.5457L136.811 35.386L139.947 37.6162L143.082 35.386L141.901 34.5457L140.864 35.283V30.7534Z" fill="#FF872C"/>
</g>
<defs>
<clipPath id="clip0">
<rect width="291" height="240" fill="white"/>
</clipPath>
</defs>
</svg>
