<svg width="242" height="228" viewBox="0 0 242 228" fill="none" xmlns="http://www.w3.org/2000/svg">
<path d="M14 114C14 83.777 26.019 54.761 47.39 33.39C68.761 12.019 97.777 0 128 0C158.223 0 187.239 12.019 208.61 33.39C229.981 54.761 242 83.777 242 114C242 144.223 229.981 173.239 208.61 194.61C187.239 215.981 158.223 228 128 228C97.777 228 68.761 215.981 47.39 194.61C26.019 173.239 14 144.223 14 114Z" fill="#394C69"/>
<path d="M55 140C54.991 137.038 55.922 134.148 57.658 131.748C59.395 129.349 61.849 127.561 64.665 126.644C67.482 125.726 70.518 125.726 73.335 126.644C76.151 127.561 78.605 129.349 80.342 131.748C82.078 134.148 83.009 137.038 83 140C83.009 142.962 82.078 145.852 80.342 148.252C78.605 150.651 76.151 152.439 73.335 153.356C70.518 154.274 67.482 154.274 64.665 153.356C61.849 152.439 59.395 150.651 57.658 148.252C55.922 145.852 54.991 142.962 55 140Z" fill="white"/>
<path d="M63 160.5C63 158.777 63.685 157.122 64.904 155.904C66.122 154.685 67.777 154 69.5 154C71.223 154 72.878 154.685 74.096 155.904C75.315 157.122 76 158.777 76 160.5C76 162.223 75.315 163.878 74.096 165.096C72.878 166.315 71.223 167 69.5 167C67.777 167 66.122 166.315 64.904 165.096C63.685 163.878 63 162.223 63 160.5Z" fill="white"/>
<path d="M0 140C0 136.554 1.371 133.245 3.808 130.808C6.245 128.371 9.554 127 13 127C16.446 127 19.755 128.371 22.192 130.808C24.629 133.245 26 136.554 26 140C26 143.446 24.629 146.755 22.192 149.192C19.755 151.629 16.446 153 13 153C9.554 153 6.245 151.629 3.808 149.192C1.371 146.755 0 143.446 0 140Z" fill="white"/>
<path d="M17 153.5C17 151.494 17.635 149.539 18.814 147.916C19.993 146.293 21.657 145.085 23.564 144.465C25.472 143.845 27.528 143.845 29.436 144.465C31.343 145.085 33.007 146.293 34.186 147.916C35.365 149.539 36 151.494 36 153.5C36 155.506 35.365 157.461 34.186 159.084C33.007 160.707 31.343 161.915 29.436 162.535C27.528 163.155 25.472 163.155 23.564 162.535C21.657 161.915 19.993 160.707 18.814 159.084C17.635 157.461 17 155.506 17 153.5Z" fill="white"/>
<path d="M16 168.5C16 165.981 17.002 163.563 18.782 161.782C20.563 160.002 22.981 159 25.5 159C28.019 159 30.437 160.002 32.218 161.782C33.998 163.563 35 165.981 35 168.5C35 171.019 33.998 173.437 32.218 175.218C30.437 176.998 28.019 178 25.5 178C22.981 178 20.563 176.998 18.782 175.218C17.002 173.437 16 171.019 16 168.5Z" fill="white"/>
<path d="M19 176.5C19 173.981 20.002 171.563 21.782 169.782C23.563 168.002 25.981 167 28.5 167C31.019 167 33.437 168.002 35.218 169.782C36.998 171.563 38 173.981 38 176.5C38 179.019 36.998 181.437 35.218 183.218C33.437 184.998 31.019 186 28.5 186C25.981 186 23.563 184.998 21.782 183.218C20.002 181.437 19 179.019 19 176.5Z" fill="white"/>
<path d="M35 139C35 138.47 35.211 137.961 35.586 137.586C35.961 137.211 36.47 137 37 137C37.53 137 38.039 137.211 38.414 137.586C38.789 137.961 39 138.47 39 139C39 139.53 38.789 140.039 38.414 140.414C38.039 140.789 37.53 141 37 141C36.47 141 35.961 140.789 35.586 140.414C35.211 140.039 35 139.53 35 139Z" fill="white"/>
<path d="M47 153C47 152.47 47.211 151.961 47.586 151.586C47.961 151.211 48.47 151 49 151C49.53 151 50.039 151.211 50.414 151.586C50.789 151.961 51 152.47 51 153C51 153.53 50.789 154.039 50.414 154.414C50.039 154.789 49.53 155 49 155C48.47 155 47.961 154.789 47.586 154.414C47.211 154.039 47 153.53 47 153Z" fill="white"/>
<path d="M67.015 103.045C67.009 105.799 67.876 108.484 69.489 110.713C71.102 112.942 73.381 114.602 75.994 115.451C78.607 116.301 81.423 116.298 84.035 115.442C86.646 114.586 88.92 112.922 90.528 110.689C92.137 108.456 92.997 105.769 92.985 103.015C92.991 100.261 92.124 97.576 90.511 95.347C88.898 93.118 86.619 91.458 84.006 90.609C81.393 89.759 78.577 89.762 75.965 90.618C73.354 91.474 71.08 93.138 69.472 95.371C67.863 97.604 67.003 100.291 67.015 103.045Z" fill="white"/>
<path d="M75 157.5C75 155.283 75.702 153.122 77.005 151.328C78.308 149.535 80.147 148.199 82.255 147.514C84.364 146.829 86.636 146.829 88.745 147.514C90.853 148.199 92.692 149.535 93.995 151.328C95.298 153.122 96 155.283 96 157.5C96 159.717 95.298 161.878 93.995 163.672C92.692 165.465 90.853 166.801 88.745 167.486C86.636 168.171 84.364 168.171 82.255 167.486C80.147 166.801 78.308 165.465 77.005 163.672C75.702 161.878 75 159.717 75 157.5Z" fill="white"/>
<path d="M42 142C42 141.205 42.316 140.441 42.879 139.879C43.441 139.316 44.205 139 45 139C45.795 139 46.559 139.316 47.121 139.879C47.684 140.441 48 141.205 48 142C48 142.795 47.684 143.559 47.121 144.121C46.559 144.684 45.795 145 45 145C44.205 145 43.441 144.684 42.879 144.121C42.316 143.559 42 142.795 42 142Z" fill="white"/>
<path d="M63 154C63 153.205 63.316 152.441 63.879 151.879C64.441 151.316 65.205 151 66 151C66.795 151 67.559 151.316 68.121 151.879C68.684 152.441 69 153.205 69 154C69 154.795 68.684 155.559 68.121 156.121C67.559 156.684 66.795 157 66 157C65.205 157 64.441 156.684 63.879 156.121C63.316 155.559 63 154.795 63 154Z" fill="white"/>
<path d="M50 124.5C50 123.042 50.58 121.642 51.611 120.611C52.642 119.58 54.042 119 55.5 119C56.958 119 58.358 119.58 59.389 120.611C60.42 121.642 61 123.042 61 124.5C61 125.958 60.42 127.358 59.389 128.389C58.358 129.42 56.958 130 55.5 130C54.042 130 52.642 129.42 51.611 128.389C50.58 127.358 50 125.958 50 124.5Z" fill="white"/>
<path d="M68 138C68 136.674 68.527 135.402 69.464 134.464C70.402 133.527 71.674 133 73 133C74.326 133 75.598 133.527 76.536 134.464C77.473 135.402 78 136.674 78 138C78 139.326 77.473 140.598 76.536 141.536C75.598 142.473 74.326 143 73 143C71.674 143 70.402 142.473 69.464 141.536C68.527 140.598 68 139.326 68 138Z" fill="white"/>
<path d="M58 114.5C58 111.716 59.107 109.044 61.075 107.075C63.044 105.107 65.716 104 68.5 104C71.284 104 73.956 105.107 75.925 107.075C77.893 109.044 79 111.716 79 114.5C79 117.284 77.893 119.956 75.925 121.925C73.956 123.893 71.284 125 68.5 125C65.716 125 63.044 123.893 61.075 121.925C59.107 119.956 58 117.284 58 114.5Z" fill="white"/>
<path d="M86 153.5C86 149.656 87.529 145.965 90.247 143.247C92.965 140.529 96.656 139 100.5 139C104.344 139 108.035 140.529 110.753 143.247C113.471 145.965 115 149.656 115 153.5C115 157.344 113.471 161.035 110.753 163.753C108.035 166.471 104.344 168 100.5 168C96.656 168 92.965 166.471 90.247 163.753C87.529 161.035 86 157.344 86 153.5Z" fill="white"/>
<path d="M55 159C55 158.205 55.316 157.441 55.879 156.879C56.441 156.316 57.205 156 58 156C58.795 156 59.559 156.316 60.121 156.879C60.684 157.441 61 158.205 61 159C61 159.795 60.684 160.559 60.121 161.121C59.559 161.684 58.795 162 58 162C57.205 162 56.441 161.684 55.879 161.121C55.316 160.559 55 159.795 55 159Z" fill="white"/>
<path d="M50 147C50 145.674 50.527 144.402 51.464 143.464C52.402 142.527 53.674 142 55 142C56.326 142 57.598 142.527 58.536 143.464C59.473 144.402 60 145.674 60 147C60 148.326 59.473 149.598 58.536 150.536C57.598 151.473 56.326 152 55 152C53.674 152 52.402 151.473 51.464 150.536C50.527 149.598 50 148.326 50 147Z" fill="white"/>
<path d="M37 148C37 147.735 37.105 147.48 37.293 147.293C37.48 147.105 37.735 147 38 147C38.265 147 38.52 147.105 38.707 147.293C38.895 147.48 39 147.735 39 148C39 148.265 38.895 148.52 38.707 148.707C38.52 148.895 38.265 149 38 149C37.735 149 37.48 148.895 37.293 148.707C37.105 148.52 37 148.265 37 148Z" fill="white"/>
<path d="M42 152C42 151.735 42.105 151.48 42.293 151.293C42.48 151.105 42.735 151 43 151C43.265 151 43.52 151.105 43.707 151.293C43.895 151.48 44 151.735 44 152C44 152.265 43.895 152.52 43.707 152.707C43.52 152.895 43.265 153 43 153C42.735 153 42.48 152.895 42.293 152.707C42.105 152.52 42 152.265 42 152Z" fill="white"/>
<path d="M30.5 151.5C30.5 151.235 30.605 150.98 30.793 150.793C30.98 150.605 31.235 150.5 31.5 150.5C31.765 150.5 32.02 150.605 32.207 150.793C32.395 150.98 32.5 151.235 32.5 151.5C32.5 151.765 32.395 152.02 32.207 152.207C32.02 152.395 31.765 152.5 31.5 152.5C31.235 152.5 30.98 152.395 30.793 152.207C30.605 152.02 30.5 151.765 30.5 151.5Z" fill="white"/>
<path d="M42 147.5C42 147.102 42.158 146.721 42.439 146.439C42.721 146.158 43.102 146 43.5 146C43.898 146 44.279 146.158 44.561 146.439C44.842 146.721 45 147.102 45 147.5C45 147.898 44.842 148.279 44.561 148.561C44.279 148.842 43.898 149 43.5 149C43.102 149 42.721 148.842 42.439 148.561C42.158 148.279 42 147.898 42 147.5Z" fill="white"/>
<path d="M42 129C42 127.94 42.422 126.921 43.172 126.172C43.921 125.422 44.94 125 46 125C47.06 125 48.079 125.422 48.828 126.172C49.578 126.921 50 127.94 50 129C50 130.06 49.578 131.079 48.828 131.828C48.079 132.578 47.06 133 46 133C44.94 133 43.921 132.578 43.172 131.828C42.422 131.079 42 130.06 42 129Z" fill="white"/>
<path d="M56 130.5C56 129.572 56.369 128.681 57.025 128.025C57.681 127.369 58.572 127 59.5 127C60.428 127 61.319 127.369 61.975 128.025C62.631 128.681 63 129.572 63 130.5C63 131.428 62.631 132.319 61.975 132.975C61.319 133.631 60.428 134 59.5 134C58.572 134 57.681 133.631 57.025 132.975C56.369 132.319 56 131.428 56 130.5Z" fill="white"/>
<path d="M54 122C54 120.522 54.468 119.081 55.337 117.886C56.206 116.69 57.431 115.799 58.837 115.343C60.243 114.886 61.757 114.886 63.163 115.343C64.569 115.799 65.794 116.69 66.663 117.886C67.532 119.081 68 120.522 68 122C68 123.478 67.532 124.919 66.663 126.114C65.794 127.31 64.569 128.201 63.163 128.657C61.757 129.114 60.243 129.114 58.837 128.657C57.431 128.201 56.206 127.31 55.337 126.114C54.468 124.919 54 123.478 54 122Z" fill="white"/>
<path d="M86.476 145.788C80.31 147.737 62.039 142.049 62.039 142.049C62.039 142.049 73.721 126.893 79.888 124.944C86.054 122.995 92.528 126.081 94.347 131.837C96.167 137.593 92.643 143.839 86.476 145.788Z" fill="#FD785B"/>
<path d="M88.212 140.751C84.333 141.977 72.839 138.398 72.839 138.398C72.839 138.398 80.188 128.863 84.068 127.637C87.947 126.411 92.02 128.353 93.164 131.974C94.309 135.595 92.092 139.525 88.212 140.751Z" fill="#F4D770"/>
<path d="M100.12 107.624C93.953 109.573 75.683 103.885 75.683 103.885C75.683 103.885 87.365 88.729 93.531 86.78C99.698 84.831 106.172 87.917 107.991 93.673C109.81 99.429 106.286 105.675 100.12 107.624Z" fill="#FD785B"/>
<path d="M101.856 102.587C97.977 103.813 86.482 100.234 86.482 100.234C86.482 100.234 93.832 90.699 97.711 89.473C101.591 88.247 105.663 90.189 106.808 93.81C107.952 97.431 105.735 101.361 101.856 102.587Z" fill="#F4D770"/>
<path d="M122.12 157.624C115.953 159.573 97.683 153.885 97.683 153.885C97.683 153.885 109.365 138.729 115.531 136.78C121.698 134.831 128.172 137.917 129.991 143.673C131.81 149.429 128.286 155.675 122.12 157.624Z" fill="#FD785B"/>
<path d="M123.856 152.587C119.977 153.813 108.482 150.234 108.482 150.234C108.482 150.234 115.832 140.699 119.711 139.473C123.591 138.247 127.663 140.189 128.808 143.81C129.952 147.431 127.735 151.361 123.856 152.587Z" fill="#F4D770"/>
<path d="M81 131C81 126.758 82.687 122.686 85.686 119.686C88.686 116.687 92.758 115 97 115C101.242 115 105.314 116.687 108.314 119.686C111.313 122.686 113 126.758 113 131C113 135.242 111.313 139.314 108.314 142.314C105.314 145.313 101.242 147 97 147C92.758 147 88.686 145.313 85.686 142.314C82.687 139.314 81 135.242 81 131Z" fill="#7B7B7B"/>
<path d="M94 96C94 91.758 95.687 87.686 98.686 84.686C101.686 81.687 105.758 80 110 80C114.242 80 118.314 81.687 121.314 84.686C124.313 87.686 126 91.758 126 96C126 100.242 124.313 104.314 121.314 107.314C118.314 110.313 114.242 112 110 112C105.758 112 101.686 110.313 98.686 107.314C95.687 104.314 94 100.242 94 96Z" fill="#7B7B7B"/>
<path d="M116 140C116 135.758 117.687 131.686 120.686 128.686C123.686 125.687 127.758 124 132 124C136.242 124 140.314 125.687 143.314 128.686C146.313 131.686 148 135.758 148 140C148 144.242 146.313 148.314 143.314 151.314C140.314 154.313 136.242 156 132 156C127.758 156 123.686 154.313 120.686 151.314C117.687 148.314 116 144.242 116 140Z" fill="#7B7B7B"/>
<path d="M88 129C88 124.758 89.687 120.686 92.686 117.686C95.686 114.687 99.758 113 104 113C108.242 113 112.314 114.687 115.314 117.686C118.313 120.686 120 124.758 120 129C120 133.242 118.313 137.314 115.314 140.314C112.314 143.313 108.242 145 104 145C99.758 145 95.686 143.313 92.686 140.314C89.687 137.314 88 133.242 88 129Z" fill="#C4C4C4"/>
<path d="M99 94C99 89.758 100.687 85.686 103.686 82.686C106.686 79.687 110.758 78 115 78C119.242 78 123.314 79.687 126.314 82.686C129.313 85.686 131 89.758 131 94C131 98.242 129.313 102.314 126.314 105.314C123.314 108.313 119.242 110 115 110C110.758 110 106.686 108.313 103.686 105.314C100.687 102.314 99 98.242 99 94Z" fill="#C4C4C4"/>
<path d="M120 138C120 133.758 121.687 129.686 124.686 126.686C127.686 123.687 131.758 122 136 122C140.242 122 144.314 123.687 147.314 126.686C150.313 129.686 152 133.758 152 138C152 142.242 150.313 146.314 147.314 149.314C144.314 152.313 140.242 154 136 154C131.758 154 127.686 152.313 124.686 149.314C121.687 146.314 120 142.242 120 138Z" fill="#C4C4C4"/>
<path d="M100 114C100 104.986 103.585 96.332 109.958 89.958C116.332 83.585 124.986 80 134 80C143.014 80 151.668 83.585 158.042 89.958C164.415 96.332 168 104.986 168 114C168 123.014 164.415 131.668 158.042 138.042C151.668 144.415 143.014 148 134 148C124.986 148 116.332 144.415 109.958 138.042C103.585 131.668 100 123.014 100 114Z" fill="#B3B3B3"/>
<path d="M143 76L122.5 82L143 84.5V76Z" fill="#B2B2B2"/>
<path d="M165.5 140L142 147L149.5 138.5H157.5L165.5 140Z" fill="#B2B2B2"/>
<path fill-rule="evenodd" clip-rule="evenodd" d="M174.001 135.497C168.389 139.587 161.476 142 154 142C135.222 142 120 126.778 120 108C120 89.222 135.222 74 154 74C157.699 74 161.261 74.591 164.595 75.683C167.524 74.595 170.692 74 174 74C188.912 74 201 86.088 201 101C201 110.189 196.409 118.306 189.396 123.183L176.383 133.593C175.625 134.257 174.838 134.887 174.023 135.482L174 135.5L174.001 135.497Z" fill="#F4D770"/>
<path fill-rule="evenodd" clip-rule="evenodd" d="M194.151 112.154C190.073 113.73 185.414 113.833 181.03 112.094C171.789 108.429 167.269 97.967 170.935 88.726C172.673 84.342 175.942 81.021 179.884 79.132C175.367 80.877 171.563 84.43 169.636 89.287C165.971 98.528 170.491 108.99 179.732 112.655C184.589 114.582 189.783 114.247 194.151 112.154Z" fill="#FFEBA5"/>
<path d="M175 74H155L158 80.5H169L175 74Z" fill="#F4D770"/>
<path d="M105 122C105 117.758 106.687 113.686 109.686 110.686C112.686 107.687 116.758 106 121 106C125.242 106 129.314 107.687 132.314 110.686C135.313 113.686 137 117.758 137 122C137 126.242 135.313 130.314 132.314 133.314C129.314 136.313 125.242 138 121 138C116.758 138 112.686 136.313 109.686 133.314C106.687 130.314 105 126.242 105 122Z" fill="#B2B2B2"/>
<path d="M131.201 131.849C131.948 131.537 132.655 131.242 133.343 130.97C133.882 130.757 134.143 130.136 133.924 129.583C132.233 125.3 132.145 121.565 133.649 117.828C133.865 117.294 133.62 116.675 133.098 116.432C129.447 114.732 126.959 111.945 125.268 107.662C125.049 107.109 124.435 106.833 123.896 107.046C123.207 107.318 122.49 107.585 121.73 107.868C114.665 110.499 104.99 114.103 105.671 127.69C105.677 127.811 105.703 127.929 105.747 128.04C105.791 128.151 105.853 128.254 105.93 128.346C114.717 138.735 124.244 134.755 131.201 131.849Z" fill="#38AB43"/>
<path d="M129.219 130.258C129.837 130 130.421 129.756 130.99 129.532C131.436 129.356 131.652 128.843 131.472 128.388C130.079 124.86 130.011 121.781 131.258 118.701C131.436 118.26 131.235 117.75 130.803 117.55C127.788 116.153 125.735 113.859 124.342 110.332C124.162 109.876 123.654 109.649 123.208 109.825C122.639 110.05 122.046 110.271 121.418 110.505C115.576 112.681 107.575 115.662 108.124 126.859C108.129 126.958 108.15 127.055 108.186 127.147C108.222 127.238 108.273 127.323 108.337 127.399C115.587 135.951 123.466 132.661 129.219 130.258Z" fill="#222222"/>
<g clip-path="url(#clip0)">
<path fill-rule="evenodd" clip-rule="evenodd" d="M118.534 115.374L118.534 115.374L123.362 118.513L121.707 119.167L118.166 116.864L116.647 123.014L114.123 124.01L116.01 116.37L118.534 115.374ZM123.646 128.321L123.646 128.32L125.027 122.73L123.372 123.383L122.359 127.484L117.049 124.031L114.525 125.028L121.123 129.317L123.646 128.321ZM125.242 121.264L124.52 119.436L120.006 121.219L120.333 119.895L119.031 119.049L118.042 123.051L121.499 125.298L121.871 123.79L120.728 123.047L125.242 121.264Z" fill="#FF872C"/>
</g>
<path d="M147.5 76C145.476 76.267 142.012 79.062 141 80.395H173.5C173.5 80.395 176.5 79.107 177.5 78C178.242 77.179 175 76.5 175 76.5C163.365 76.944 149.524 75.733 147.5 76Z" fill="white" fill-opacity="0.2"/>
<path d="M183.5 123L196.697 113.322C197.154 112.987 197.754 113.493 197.5 114L196 116.5C194.342 118.821 192.358 120.892 190.111 122.648L177.5 132.5L173 136C170.031 138.309 166.625 139.994 162.987 140.951L159 142L147 145.5L140.878 146.958C137.969 147.65 134.99 148 132 148L126.737 147.522C126.581 147.507 126.428 147.464 126.287 147.393L125.822 147.161C124.746 146.623 125.129 145 126.333 145C126.444 145 126.554 144.984 126.66 144.952L136.5 142L149 139L162.5 134C169.478 131.342 176.136 127.909 182.349 123.767L183.5 123Z" fill="#070707" fill-opacity="0.1"/>
<path d="M189.865 93.857L180.787 85.128C180.787 85.128 177.955 90.506 179.17 96.46C180.385 102.415 187.208 106.693 187.208 106.693L189.865 93.857Z" fill="#FFEBA5" fill-opacity="0.5"/>
<path d="M190.298 94.229L197.395 100.365C197.395 100.365 199.106 95.967 197.859 91.415C196.612 86.864 191.42 84.031 191.42 84.031L190.298 94.229Z" fill="#0C0C0C" fill-opacity="0.1"/>
<path d="M212 172.5C212 172.102 212.158 171.721 212.439 171.439C212.721 171.158 213.102 171 213.5 171C213.898 171 214.279 171.158 214.561 171.439C214.842 171.721 215 172.102 215 172.5C215 172.898 214.842 173.279 214.561 173.561C214.279 173.842 213.898 174 213.5 174C213.102 174 212.721 173.842 212.439 173.561C212.158 173.279 212 172.898 212 172.5Z" fill="#A1DCFE"/>
<path d="M69 58.5C69 57.837 69.264 57.201 69.732 56.732C70.201 56.264 70.837 56 71.5 56C72.163 56 72.799 56.264 73.268 56.732C73.736 57.201 74 57.837 74 58.5C74 59.163 73.736 59.799 73.268 60.268C72.799 60.736 72.163 61 71.5 61C70.837 61 70.201 60.736 69.732 60.268C69.264 59.799 69 59.163 69 58.5Z" fill="#A3A1FE"/>
<path d="M224 112.5C224 111.837 224.264 111.201 224.732 110.732C225.201 110.264 225.837 110 226.5 110C227.163 110 227.799 110.264 228.268 110.732C228.736 111.201 229 111.837 229 112.5C229 113.163 228.736 113.799 228.268 114.268C227.799 114.736 227.163 115 226.5 115C225.837 115 225.201 114.736 224.732 114.268C224.264 113.799 224 113.163 224 112.5Z" fill="#A1DCFE"/>
<path d="M147 201C147 200.47 147.211 199.961 147.586 199.586C147.961 199.211 148.47 199 149 199C149.53 199 150.039 199.211 150.414 199.586C150.789 199.961 151 200.47 151 201C151 201.53 150.789 202.039 150.414 202.414C150.039 202.789 149.53 203 149 203C148.47 203 147.961 202.789 147.586 202.414C147.211 202.039 147 201.53 147 201Z" fill="#A1DCFE"/>
<path d="M170 55C170 54.735 170.105 54.48 170.293 54.293C170.48 54.105 170.735 54 171 54C171.265 54 171.52 54.105 171.707 54.293C171.895 54.48 172 54.735 172 55C172 55.265 171.895 55.52 171.707 55.707C171.52 55.895 171.265 56 171 56C170.735 56 170.48 55.895 170.293 55.707C170.105 55.52 170 55.265 170 55Z" fill="#A1DCFE"/>
<path d="M175 157C175 156.735 175.105 156.48 175.293 156.293C175.48 156.105 175.735 156 176 156C176.265 156 176.52 156.105 176.707 156.293C176.895 156.48 177 156.735 177 157C177 157.265 176.895 157.52 176.707 157.707C176.52 157.895 176.265 158 176 158C175.735 158 175.48 157.895 175.293 157.707C175.105 157.52 175 157.265 175 157Z" fill="#A1DCFE"/>
<path d="M96 186C96 185.735 96.105 185.48 96.293 185.293C96.48 185.105 96.735 185 97 185C97.265 185 97.52 185.105 97.707 185.293C97.895 185.48 98 185.735 98 186C98 186.265 97.895 186.52 97.707 186.707C97.52 186.895 97.265 187 97 187C96.735 187 96.48 186.895 96.293 186.707C96.105 186.52 96 186.265 96 186Z" fill="#EDDDCE"/>
<path d="M204 48.5C204 48.102 204.158 47.721 204.439 47.439C204.721 47.158 205.102 47 205.5 47C205.898 47 206.279 47.158 206.561 47.439C206.842 47.721 207 48.102 207 48.5C207 48.898 206.842 49.279 206.561 49.561C206.279 49.842 205.898 50 205.5 50C205.102 50 204.721 49.842 204.439 49.561C204.158 49.279 204 48.898 204 48.5Z" fill="#FFF4CF"/>
<path d="M127 24.5C127 23.837 127.264 23.201 127.732 22.732C128.201 22.264 128.837 22 129.5 22C130.163 22 130.799 22.264 131.268 22.732C131.736 23.201 132 23.837 132 24.5C132 25.163 131.736 25.799 131.268 26.268C130.799 26.736 130.163 27 129.5 27C128.837 27 128.201 26.736 127.732 26.268C127.264 25.799 127 25.163 127 24.5Z" fill="#A1DCFE"/>
<defs>
<clipPath id="clip0">
<rect width="14.1725" height="11.3719" fill="white" transform="translate(122.325 113.877) rotate(68.4514)"/>
</clipPath>
</defs>
</svg>
