<svg width="293" height="212" viewBox="0 0 293 212" fill="none" xmlns="http://www.w3.org/2000/svg">
<g clip-path="url(#clip0)">
<path d="M95.739 54.5C95.703 43.053 99.3 31.885 106.011 22.611C112.722 13.338 122.206 6.42899 133.09 2.88499C143.975 -0.65901 155.708 -0.65901 166.593 2.88499C177.477 6.42899 186.961 13.338 193.672 22.611C200.383 31.885 203.98 43.053 203.944 54.5C203.98 65.947 200.383 77.115 193.672 86.389C186.961 95.662 177.477 102.571 166.593 106.115C155.708 109.659 143.975 109.659 133.09 106.115C122.206 102.571 112.722 95.662 106.011 86.389C99.3 77.115 95.703 65.947 95.739 54.5Z" fill="#F65858"/>
<path d="M98.087 56.123C98.052 50.471 99.816 44.951 103.122 40.366C106.427 35.781 111.107 32.363 116.481 30.61C121.854 28.857 127.649 28.857 133.022 30.61C138.396 32.363 143.076 35.781 146.381 40.366C149.687 44.951 151.451 50.471 151.416 56.123C151.451 61.775 149.687 67.295 146.381 71.88C143.076 76.465 138.396 79.883 133.022 81.636C127.649 83.389 121.854 83.389 116.481 81.636C111.107 79.883 106.427 76.465 103.122 71.88C99.816 67.295 98.052 61.775 98.087 56.123Z" fill="#F3F3F3"/>
<path d="M109.805 74.039C109.775 69.665 111.136 65.394 113.692 61.844C116.248 58.295 119.868 55.65 124.026 54.293C128.184 52.935 132.667 52.935 136.825 54.293C140.983 55.65 144.603 58.295 147.159 61.844C149.715 65.394 151.076 69.665 151.046 74.039C151.076 78.413 149.715 82.684 147.159 86.234C144.603 89.783 140.983 92.428 136.825 93.785C132.667 95.143 128.184 95.143 124.026 93.785C119.868 92.428 116.248 89.783 113.692 86.234C111.136 82.684 109.775 78.413 109.805 74.039Z" fill="#D8D8D8"/>
<path d="M124.397 45.813C124.397 38.65 127.246 31.772 132.311 26.707C137.376 21.642 144.254 18.793 151.417 18.793C158.58 18.793 165.458 21.642 170.523 26.707C175.588 31.772 178.437 38.65 178.437 45.813C178.437 52.976 175.588 59.854 170.523 64.919C165.458 69.984 158.58 72.833 151.417 72.833C144.254 72.833 137.376 69.984 132.311 64.919C127.246 59.854 124.397 52.976 124.397 45.813Z" fill="#F3F3F3"/>
<path d="M143.348 71.874C143.318 67.5 144.679 63.229 147.235 59.679C149.791 56.13 153.411 53.485 157.569 52.128C161.727 50.77 166.21 50.77 170.368 52.128C174.526 53.485 178.146 56.13 180.702 59.679C183.258 63.229 184.619 67.5 184.589 71.874C184.619 76.248 183.258 80.519 180.702 84.069C178.146 87.618 174.526 90.263 170.368 91.62C166.21 92.978 161.727 92.978 157.569 91.62C153.411 90.263 149.791 87.618 147.235 84.069C144.679 80.519 143.318 76.248 143.348 71.874Z" fill="#D8D8D8"/>
<path d="M142.174 55.768C142.174 50.213 143.933 44.798 147.199 40.304C150.464 35.81 155.07 32.463 160.353 30.747C165.636 29.03 171.33 29.03 176.613 30.747C181.896 32.463 186.502 35.81 189.767 40.304C193.033 44.798 194.792 50.213 194.792 55.768C194.792 61.323 193.033 66.738 189.767 71.232C186.502 75.726 181.896 79.073 176.613 80.789C171.33 82.506 165.636 82.506 160.353 80.789C155.07 79.073 150.464 75.726 147.199 71.232C143.933 66.738 142.174 61.323 142.174 55.768Z" fill="#F3F3F3"/>
<path d="M83.836 61.07C83.836 56.941 85.144 52.917 87.57 49.576C89.997 46.236 93.421 43.749 97.347 42.473C101.274 41.197 105.506 41.197 109.433 42.473C113.359 43.749 116.783 46.236 119.21 49.576C121.636 52.917 122.944 56.941 122.944 61.07C122.944 66.254 120.882 71.231 117.217 74.897C113.551 78.562 108.574 80.624 103.39 80.624C98.206 80.624 93.229 78.562 89.563 74.897C85.898 71.231 83.836 66.254 83.836 61.07Z" fill="#D8D8D8"/>
<path d="M176.892 62.152C176.892 56.968 178.954 51.991 182.619 48.325C186.285 44.66 191.262 42.598 196.446 42.598C201.63 42.598 206.607 44.66 210.273 48.325C213.938 51.991 216 56.968 216 62.152C216 67.336 213.938 72.313 210.273 75.979C206.607 79.644 201.63 81.706 196.446 81.706C191.262 81.706 186.285 79.644 182.619 75.979C178.954 72.313 176.892 67.336 176.892 62.152Z" fill="#D8D8D8"/>
<path d="M98.087 52.877C98.052 47.225 99.816 41.705 103.122 37.12C106.427 32.535 111.107 29.117 116.481 27.364C121.854 25.611 127.649 25.611 133.022 27.364C138.396 29.117 143.076 32.535 146.381 37.12C149.687 41.705 151.451 47.225 151.416 52.877C151.451 58.529 149.687 64.049 146.381 68.634C143.076 73.219 138.396 76.637 133.022 78.39C127.649 80.143 121.854 80.143 116.481 78.39C111.107 76.637 106.427 73.219 103.122 68.634C99.816 64.049 98.052 58.529 98.087 52.877Z" fill="#F1F1F1"/>
<path d="M110.175 69.587C110.145 65.213 111.506 60.942 114.062 57.392C116.618 53.843 120.238 51.198 124.396 49.841C128.554 48.483 133.037 48.483 137.195 49.841C141.353 51.198 144.973 53.843 147.529 57.392C150.085 60.942 151.446 65.213 151.416 69.587C151.446 73.961 150.085 78.232 147.529 81.782C144.973 85.331 141.353 87.976 137.195 89.333C133.037 90.691 128.554 90.691 124.396 89.333C120.238 87.976 116.618 85.331 114.062 81.782C111.506 78.232 110.145 73.961 110.175 69.587Z" fill="#F1F1F1"/>
<path d="M124.397 42.567C124.397 35.404 127.246 28.526 132.311 23.461C137.376 18.396 144.254 15.547 151.417 15.547C158.58 15.547 165.458 18.396 170.523 23.461C175.588 28.526 178.437 35.404 178.437 42.567C178.437 49.73 175.588 56.608 170.523 61.673C165.458 66.738 158.58 69.587 151.417 69.587C144.254 69.587 137.376 66.738 132.311 61.673C127.246 56.608 124.397 49.73 124.397 42.567Z" fill="#F1F1F1"/>
<path d="M142.884 69.587C142.854 65.213 144.215 60.942 146.771 57.392C149.327 53.843 152.947 51.198 157.105 49.841C161.263 48.483 165.746 48.483 169.904 49.841C174.062 51.198 177.682 53.843 180.238 57.392C182.794 60.942 184.155 65.213 184.125 69.587C184.155 73.961 182.794 78.232 180.238 81.782C177.682 85.331 174.062 87.976 169.904 89.333C165.746 90.691 161.263 90.691 157.105 89.333C152.947 87.976 149.327 85.331 146.771 81.782C144.215 78.232 142.854 73.961 142.884 69.587Z" fill="#F1F1F1"/>
<path d="M142.174 52.521C142.174 46.966 143.933 41.551 147.199 37.057C150.464 32.563 155.07 29.216 160.353 27.5C165.636 25.783 171.33 25.783 176.613 27.5C181.896 29.216 186.502 32.563 189.767 37.057C193.033 41.551 194.792 46.966 194.792 52.521C194.792 58.076 193.033 63.491 189.767 67.985C186.502 72.479 181.896 75.826 176.613 77.542C171.33 79.259 165.636 79.259 160.353 77.542C155.07 75.826 150.464 72.479 147.199 67.985C143.933 63.491 142.174 58.076 142.174 52.521Z" fill="#F1F1F1"/>
<path d="M86 59.277C85.987 55.14 87.287 51.103 89.713 47.752C92.138 44.4 95.566 41.903 99.5 40.622C103.434 39.341 107.674 39.341 111.608 40.622C115.542 41.903 118.97 44.4 121.395 47.752C123.821 51.103 125.121 55.14 125.108 59.277C125.121 63.414 123.821 67.451 121.395 70.802C118.97 74.154 115.542 76.651 111.608 77.932C107.674 79.213 103.434 79.213 99.5 77.932C95.566 76.651 92.138 74.154 89.713 70.802C87.287 67.451 85.987 63.414 86 59.277Z" fill="#F1F1F1"/>
<path d="M174.882 59.987C174.882 54.803 176.944 49.826 180.609 46.16C184.275 42.495 189.252 40.433 194.436 40.433C199.62 40.433 204.597 42.495 208.263 46.16C211.928 49.826 213.99 54.803 213.99 59.987C213.99 65.171 211.928 70.148 208.263 73.814C204.597 77.479 199.62 79.541 194.436 79.541C189.252 79.541 184.275 77.479 180.609 73.814C176.944 70.148 174.882 65.171 174.882 59.987Z" fill="#F1F1F1"/>
<path d="M115.325 46.86C117.859 44.194 121.175 42.4 124.792 41.736C128.41 41.072 132.147 41.572 135.463 43.164C138.778 44.756 141.505 47.359 143.249 50.598C144.993 53.836 145.666 57.546 145.17 61.19C144.675 64.835 143.035 68.23 140.49 70.885C137.956 73.551 134.64 75.345 131.023 76.009C127.405 76.673 123.668 76.173 120.352 74.581C117.037 72.989 114.31 70.386 112.566 67.147C110.822 63.909 110.149 60.199 110.645 56.555C111.14 52.91 112.78 49.515 115.325 46.86Z" fill="#D8D8D8"/>
<path d="M118.145 44.359C120.679 41.693 123.995 39.899 127.612 39.235C131.23 38.571 134.967 39.071 138.283 40.663C141.598 42.255 144.325 44.858 146.069 48.097C147.813 51.335 148.486 55.045 147.99 58.689C147.495 62.334 145.855 65.729 143.31 68.384C140.776 71.05 137.46 72.844 133.843 73.508C130.225 74.172 126.488 73.672 123.172 72.08C119.857 70.488 117.13 67.885 115.386 64.646C113.642 61.408 112.969 57.698 113.465 54.054C113.96 50.409 115.6 47.014 118.145 44.359Z" fill="#F1F1F1"/>
<path d="M168.012 60.961C166.136 59.181 164.872 56.851 164.404 54.308C163.935 51.765 164.286 49.137 165.405 46.806C166.524 44.474 168.354 42.557 170.631 41.331C172.908 40.106 175.517 39.634 178.079 39.984C180.641 40.334 183.027 41.488 184.892 43.28C186.768 45.06 188.032 47.39 188.5 49.933C188.969 52.476 188.618 55.104 187.499 57.435C186.38 59.767 184.55 61.684 182.273 62.91C179.996 64.135 177.387 64.607 174.825 64.257C172.263 63.907 169.877 62.753 168.012 60.961Z" fill="#D8D8D8"/>
<path d="M166.255 58.98C164.379 57.2 163.115 54.87 162.647 52.327C162.178 49.784 162.529 47.156 163.648 44.825C164.767 42.493 166.597 40.576 168.874 39.35C171.151 38.125 173.76 37.653 176.322 38.003C178.884 38.353 181.27 39.507 183.135 41.299C185.011 43.079 186.275 45.409 186.743 47.952C187.212 50.495 186.861 53.123 185.742 55.454C184.623 57.786 182.793 59.703 180.516 60.929C178.239 62.154 175.63 62.626 173.068 62.276C170.506 61.926 168.12 60.772 166.255 58.98Z" fill="#F1F1F1"/>
<path d="M111.969 23.963L120.385 15.547L188.481 83.643L180.065 92.059L111.969 23.963Z" fill="#F75858"/>
<path d="M12.773 146.264H92.82C93.88 146.264 94.899 146.686 95.648 147.436C96.398 148.185 96.82 149.204 96.82 150.264V196.916C96.82 197.976 96.398 198.995 95.648 199.744C94.899 200.494 93.88 200.916 92.82 200.916H12.773C11.713 200.916 10.694 200.494 9.94499 199.744C9.19499 198.995 8.77299 197.976 8.77299 196.916V150.264C8.77299 149.204 9.19499 148.185 9.94499 147.436C10.694 146.686 11.713 146.264 12.773 146.264Z" fill="#4A4A4A"/>
<path d="M14.268 148.851H90.968C91.763 148.851 92.527 149.167 93.089 149.73C93.652 150.292 93.968 151.056 93.968 151.851V190.154C93.968 190.949 93.652 191.713 93.089 192.275C92.527 192.838 91.763 193.154 90.968 193.154H14.268C13.473 193.154 12.709 192.838 12.147 192.275C11.584 191.713 11.268 190.949 11.268 190.154V151.851C11.268 151.056 11.584 150.292 12.147 149.73C12.709 149.167 13.473 148.851 14.268 148.851Z" fill="white"/>
<path d="M3 205.264H101C101.795 205.264 102.559 205.58 103.121 206.143C103.684 206.705 104 207.469 104 208.264C104 209.059 103.684 209.823 103.121 210.385C102.559 210.948 101.795 211.264 101 211.264H3C2.205 211.264 1.441 210.948 0.879 210.385C0.316 209.823 0 209.059 0 208.264C0 207.469 0.316 206.705 0.879 206.143C1.441 205.58 2.205 205.264 3 205.264Z" fill="#4A4A4A"/>
<path d="M9.301 198.652L2 205.443H102.523L96.533 198.652H9.301Z" fill="#808080"/>
<path d="M9.84199 199.46H95.75L97.711 201.724H7.52499L9.84199 199.46Z" fill="#6B6B6B"/>
<path d="M7.16901 202.209H97.89L99.672 204.473H4.13901L7.16901 202.209Z" fill="#6B6B6B"/>
<path d="M93.859 208.515C93.859 208.78 93.964 209.035 94.152 209.222C94.339 209.41 94.594 209.515 94.859 209.515C95.124 209.515 95.379 209.41 95.566 209.222C95.754 209.035 95.859 208.78 95.859 208.515C95.859 208.25 95.754 207.995 95.566 207.808C95.379 207.62 95.124 207.515 94.859 207.515C94.594 207.515 94.339 207.62 94.152 207.808C93.964 207.995 93.859 208.25 93.859 208.515Z" fill="#FFF8EC"/>
<path d="M63.778 123.122L77.195 130.749L25.775 221.208L12.358 213.581L63.778 123.122Z" fill="white" fill-opacity="0.1"/>
<path d="M79.345 133.007L86.703 137.189L35.283 227.648L27.925 223.466L79.345 133.007Z" fill="white" fill-opacity="0.1"/>
<path d="M201.773 146.264H281.82C282.88 146.264 283.899 146.686 284.648 147.436C285.398 148.185 285.82 149.204 285.82 150.264V196.916C285.82 197.976 285.398 198.995 284.648 199.744C283.899 200.494 282.88 200.916 281.82 200.916H201.773C200.713 200.916 199.694 200.494 198.945 199.744C198.195 198.995 197.773 197.976 197.773 196.916V150.264C197.773 149.204 198.195 148.185 198.945 147.436C199.694 146.686 200.713 146.264 201.773 146.264Z" fill="#4A4A4A"/>
<path d="M203.268 148.851H279.968C280.763 148.851 281.527 149.167 282.089 149.73C282.652 150.292 282.968 151.056 282.968 151.851V190.154C282.968 190.949 282.652 191.713 282.089 192.275C281.527 192.838 280.763 193.154 279.968 193.154H203.268C202.473 193.154 201.709 192.838 201.147 192.275C200.584 191.713 200.268 190.949 200.268 190.154V151.851C200.268 151.056 200.584 150.292 201.147 149.73C201.709 149.167 202.473 148.851 203.268 148.851Z" fill="white"/>
<path d="M192 205.264H290C290.795 205.264 291.559 205.58 292.121 206.143C292.684 206.705 293 207.469 293 208.264C293 209.059 292.684 209.823 292.121 210.385C291.559 210.948 290.795 211.264 290 211.264H192C191.205 211.264 190.441 210.948 189.879 210.385C189.316 209.823 189 209.059 189 208.264C189 207.469 189.316 206.705 189.879 206.143C190.441 205.58 191.205 205.264 192 205.264Z" fill="#4A4A4A"/>
<path d="M198.301 198.652L191 205.443H291.523L285.533 198.652H198.301Z" fill="#808080"/>
<path d="M198.842 199.46H284.751L286.711 201.724H196.525L198.842 199.46Z" fill="#6B6B6B"/>
<path d="M196.169 202.209H286.889L288.672 204.473H193.139L196.169 202.209Z" fill="#6B6B6B"/>
<path d="M282.859 208.515C282.859 208.78 282.964 209.035 283.152 209.222C283.339 209.41 283.594 209.515 283.859 209.515C284.124 209.515 284.379 209.41 284.566 209.222C284.754 209.035 284.859 208.78 284.859 208.515C284.859 208.25 284.754 207.995 284.566 207.808C284.379 207.62 284.124 207.515 283.859 207.515C283.594 207.515 283.339 207.62 283.152 207.808C282.964 207.995 282.859 208.25 282.859 208.515Z" fill="#FFF8EC"/>
<path d="M252.777 123.122L266.194 130.749L214.774 221.208L201.357 213.581L252.777 123.122Z" fill="white" fill-opacity="0.1"/>
<path d="M268.345 133.007L275.703 137.189L224.283 227.648L216.925 223.466L268.345 133.007Z" fill="white" fill-opacity="0.1"/>
<path d="M115.5 151.264H179.5V154.264H115.5V151.264Z" fill="#57CF87"/>
<path d="M116.462 152.764L117.5 157.264L113 152.764L117.5 148.264L116.462 152.764Z" fill="#57CF87"/>
<path d="M113 199.264H177V202.264H113V199.264Z" fill="#57CF87"/>
<path d="M175.538 200.764L174.5 196.264L179 200.764L174.5 205.264L175.538 200.764Z" fill="#57CF87"/>
<path fill-rule="evenodd" clip-rule="evenodd" d="M163.961 168.754V168.725C163.943 167.818 163.926 166.96 163.926 166.13C163.926 165.473 163.366 164.94 162.676 164.94C157.331 164.94 153.263 163.478 149.87 160.337C149.385 159.888 148.613 159.888 148.128 160.337C144.736 163.478 140.668 164.94 135.323 164.94C134.634 164.94 134.073 165.473 134.073 166.13C134.073 166.969 134.057 167.837 134.039 168.755C133.867 177.298 133.632 188.997 148.59 193.934C148.723 193.978 148.86 194 148.999 194C149.138 194 149.276 193.978 149.408 193.934C164.367 188.997 164.133 177.297 163.961 168.754Z" fill="#57CF87"/>
<path d="M149 181C150.105 181 151 180.105 151 179C151 177.89 150.1 177 149 177C147.895 177 147 177.895 147 179C147 180.105 147.895 181 149 181ZM155 172C156.105 172 157 172.895 157 174V184C157 185.105 156.105 186 155 186H143C141.895 186 141 185.105 141 184V174C141 172.89 141.9 172 143 172H144V170C144 167.239 146.239 165 149 165C150.326 165 151.598 165.527 152.536 166.464C153.473 167.402 154 168.674 154 170V172H155ZM149 167C147.343 167 146 168.343 146 170V172H152V170C152 168.343 150.657 167 149 167Z" fill="white"/>
<path d="M65.0956 164.209C65.0809 163.454 65.0668 162.739 65.0668 162.048C65.0668 161.507 64.617 161.068 64.0618 161.068C59.7636 161.068 56.4912 159.864 53.7634 157.278C53.3732 156.907 52.7522 156.908 52.3621 157.278C49.6346 159.864 46.3627 161.068 42.0648 161.068C41.5098 161.068 41.0598 161.507 41.0598 162.048C41.0598 162.739 41.0459 163.454 41.031 164.21C40.8932 171.245 40.7045 180.88 52.7336 184.946C52.8402 184.982 52.9515 185 53.0627 185C53.1739 185 53.2853 184.982 53.3918 184.946C65.4218 180.88 65.2334 171.245 65.0956 164.209Z" fill="#38AB43"/>
<path d="M63.035 165.385C63.0229 164.76 63.0113 164.169 63.0113 163.598C63.0113 163.15 62.6408 162.788 62.1835 162.788C58.6431 162.788 55.9475 161.791 53.7007 159.653C53.3793 159.347 52.8678 159.347 52.5465 159.653C50.2998 161.791 47.6047 162.788 44.0646 162.788C43.6074 162.788 43.2367 163.15 43.2367 163.598C43.2367 164.169 43.2253 164.76 43.213 165.385C43.0995 171.203 42.9441 179.17 52.8524 182.532C52.9403 182.562 53.0319 182.576 53.1235 182.576C53.2151 182.576 53.3069 182.562 53.3946 182.532C63.3037 179.169 63.1485 171.202 63.035 165.385Z" fill="#222222"/>
<path fill-rule="evenodd" clip-rule="evenodd" d="M46.451 169.558L46.4511 169.558L50.831 166.443V168.103L47.6186 170.388L52.4362 173.815V176.347L46.451 172.09V169.558ZM59.4426 169.558L59.4423 169.558L55.0625 166.443V168.103L58.2749 170.388L53.4572 173.815V176.347L59.4426 172.09V169.558ZM53.8642 165.753H52.0294V170.283L50.9929 169.546L49.8114 170.386L52.9468 172.616L56.0823 170.386L54.9007 169.546L53.8642 170.283V165.753Z" fill="#FF872C"/>
<path d="M254.096 164.209C254.081 163.454 254.067 162.739 254.067 162.048C254.067 161.507 253.617 161.068 253.062 161.068C248.764 161.068 245.491 159.864 242.763 157.278C242.373 156.907 241.752 156.908 241.362 157.278C238.635 159.864 235.363 161.068 231.065 161.068C230.51 161.068 230.06 161.507 230.06 162.048C230.06 162.739 230.046 163.454 230.031 164.21C229.893 171.245 229.705 180.88 241.734 184.946C241.84 184.982 241.951 185 242.063 185C242.174 185 242.285 184.982 242.392 184.946C254.422 180.88 254.233 171.245 254.096 164.209Z" fill="#38AB43"/>
<path d="M252.035 165.385C252.023 164.76 252.011 164.169 252.011 163.598C252.011 163.15 251.641 162.788 251.183 162.788C247.643 162.788 244.948 161.791 242.701 159.653C242.379 159.347 241.868 159.347 241.546 159.653C239.3 161.791 236.605 162.788 233.065 162.788C232.607 162.788 232.237 163.15 232.237 163.598C232.237 164.169 232.225 164.76 232.213 165.385C232.1 171.203 231.944 179.17 241.852 182.532C241.94 182.562 242.032 182.576 242.123 182.576C242.215 182.576 242.307 182.562 242.395 182.532C252.304 179.169 252.148 171.202 252.035 165.385Z" fill="#222222"/>
<path fill-rule="evenodd" clip-rule="evenodd" d="M235.451 169.558L235.451 169.558L239.831 166.443V168.103L236.619 170.388L241.436 173.815V176.347L235.451 172.09V169.558ZM248.443 169.558L248.442 169.558L244.062 166.443V168.103L247.275 170.388L242.457 173.815V176.347L248.443 172.09V169.558ZM242.864 165.753H241.029V170.283L239.993 169.546L238.811 170.386L241.947 172.616L245.082 170.386L243.901 169.546L242.864 170.283V165.753Z" fill="#FF872C"/>
</g>
<defs>
<clipPath id="clip0">
<rect width="293" height="212" fill="white"/>
</clipPath>
</defs>
</svg>
