<svg width="266" height="64" viewBox="0 0 266 64" fill="none" xmlns="http://www.w3.org/2000/svg">
<path d="M148.12 47.7857H156.704V25.2319H165.998V17.998H138.827V25.2319H148.12V47.7857ZM114.495 47.998H122.46L135.027 17.998H125.602L118.566 36.8493L111.531 17.998H101.928L114.495 47.998ZM80.5827 32.8072V24.9344H84.6099C87.7072 24.9344 89.5661 26.2955 89.5661 28.8493C89.5661 31.2749 87.7072 32.8072 84.6537 32.8072H80.5827ZM71.998 47.7857H80.5827V39.2749H84.8307C92.5302 39.2749 98.1507 35.5724 98.1507 28.5509C98.1507 21.8699 93.106 17.998 85.2733 17.998H71.998V47.7857Z" fill="white"/>
<path d="M235.001 47.421H244.519L250.413 38.7266L256.263 47.421H266L255.521 32.6692L265.562 18.5759H256.045L250.586 26.6933L245.173 18.5759H235.438L245.48 32.7516L235.001 47.421ZM218.672 40.7866C214.044 40.7866 210.857 37.1613 210.857 32.9989C210.857 28.7541 213.957 25.2104 218.584 25.2104C223.257 25.2104 226.444 28.8365 226.444 32.9989C226.444 37.242 223.345 40.7866 218.672 40.7866ZM218.584 47.998C228.015 47.998 235.088 41.2803 235.088 32.9989C235.088 24.6334 228.103 17.998 218.672 17.998C209.242 17.998 202.169 24.7158 202.169 32.9989C202.169 41.3636 209.155 47.998 218.584 47.998ZM180.251 30.073V25.0047H185.753C188.285 25.0047 189.594 25.9106 189.594 27.4768C189.594 29.2487 188.155 30.073 185.579 30.073H180.251ZM180.251 40.9931V35.6775H186.714C189.551 35.6775 190.86 36.7075 190.86 38.2728C190.86 40.0447 189.376 40.9931 186.801 40.9931H180.251ZM172 47.421H187.761C195.053 47.421 199.332 44.4135 199.332 39.4677C199.332 35.471 196.974 33.4926 193.262 32.3386C195.969 31.2262 197.978 29.2487 197.978 25.9106C197.978 23.8498 197.236 22.3253 196.013 21.1721C194.223 19.4827 191.516 18.5759 187.673 18.5759H172V47.421Z" fill="#FC8F42"/>
<path d="M55.0757 16.4788C55.042 14.7509 55.0098 13.1186 55.0098 11.5394C55.0098 10.3022 53.9816 9.29923 52.7126 9.29923C42.8883 9.29923 35.4084 6.54593 29.1735 0.634301C28.2815 -0.211583 26.8622 -0.211284 25.9706 0.634301C19.7363 6.54593 12.2576 9.29923 2.43385 9.29923C1.16519 9.29923 0.13666 10.3022 0.13666 11.5394C0.13666 13.1188 0.104806 14.7518 0.0708072 16.48C-0.244061 32.5601 -0.67532 54.5827 26.8196 63.8763C27.0634 63.9588 27.3176 64 27.5719 64C27.8261 64 28.0806 63.9588 28.3241 63.8763C55.8212 54.5824 55.3905 32.5592 55.0757 16.4788Z" fill="#38AB43"/>
<mask id="mask0" mask-type="alpha" maskUnits="userSpaceOnUse" x="0" y="0" width="56" height="64">
<path d="M55.0757 16.4788C55.042 14.7509 55.0098 13.1186 55.0098 11.5394C55.0098 10.3022 53.9816 9.29923 52.7126 9.29923C42.8883 9.29923 35.4084 6.54593 29.1735 0.634301C28.2815 -0.211583 26.8622 -0.211284 25.9706 0.634301C19.7363 6.54593 12.2576 9.29923 2.43385 9.29923C1.16519 9.29923 0.13666 10.3022 0.13666 11.5394C0.13666 13.1188 0.104806 14.7518 0.0708072 16.48C-0.244061 32.5601 -0.67532 54.5827 26.8196 63.8763C27.0634 63.9588 27.3176 64 27.5719 64C27.8261 64 28.0806 63.9588 28.3241 63.8763C55.8212 54.5824 55.3905 32.5592 55.0757 16.4788Z" fill="#FF872C"/>
</mask>
<g mask="url(#mask0)">
<path d="M27.8613 -2.41797H58.1994V66.412H27.8613V-2.41797Z" fill="#38AB43"/>
</g>
<path d="M50.3658 19.1653C50.338 17.7365 50.3116 16.3868 50.3116 15.081C50.3116 14.058 49.4646 13.2286 48.4194 13.2286C40.3271 13.2286 34.1658 10.9519 29.0302 6.06356C28.2955 5.3641 27.1264 5.36435 26.3919 6.06356C21.2568 10.9519 15.0965 13.2286 7.00476 13.2286C5.95977 13.2286 5.11257 14.058 5.11257 15.081C5.11257 16.387 5.08633 17.7373 5.05832 19.1663C4.79897 32.463 4.44374 50.6734 27.0913 58.3583C27.2921 58.4265 27.5015 58.4605 27.7109 58.4605C27.9203 58.4605 28.13 58.4265 28.3306 58.3583C50.9799 50.6731 50.6252 32.4622 50.3658 19.1653Z" fill="#222222"/>
<g clip-path="url(#clip0)">
<path fill-rule="evenodd" clip-rule="evenodd" d="M12.459 28.7036L12.4593 28.7042L22.4706 21.5839V25.3792L15.1278 30.6017L26.1395 38.434V44.2225L12.459 34.4917V28.7036ZM42.1541 28.7036L42.1534 28.7042L32.1425 21.5839V25.3792L39.4852 30.6017L28.4732 38.434V44.2225L42.1541 34.4917V28.7036ZM29.4036 20.0078H25.2098V30.3613L22.8406 28.6759L20.14 30.5966L27.3065 35.6941L34.4734 30.5966L31.7728 28.6759L29.4036 30.3613V20.0078Z" fill="#FF872C"/>
</g>
<defs>
<clipPath id="clip0">
<rect width="30.2347" height="24.2602" fill="white" transform="translate(12.459 20.0078)"/>
</clipPath>
</defs>
</svg>
