<svg width="512" height="512" viewBox="0 0 512 512" fill="none" xmlns="http://www.w3.org/2000/svg">
<path d="M475.605 131.83C475.336 118.007 475.079 104.948 475.079 92.3151C475.079 82.4178 466.853 74.3938 456.701 74.3938C378.107 74.3938 318.267 52.3674 268.388 5.07441C261.252 -1.69266 249.898 -1.69027 242.765 5.07441C192.89 52.3674 133.061 74.3938 54.4708 74.3938C44.3215 74.3938 36.0933 82.4178 36.0933 92.3151C36.0933 104.951 35.8384 118.014 35.5665 131.84C33.0475 260.481 29.5974 436.661 249.557 511.011C251.507 511.67 253.541 512 255.575 512C257.609 512 259.645 511.67 261.593 511.011C481.57 436.659 478.124 260.474 475.605 131.83Z" fill="#EEF21D"/>
<path d="M437.926 153.323C437.704 141.892 437.492 131.094 437.492 120.648C437.492 112.464 430.717 105.829 422.355 105.829C357.617 105.829 308.327 87.615 267.241 48.5085C261.364 42.9128 252.011 42.9148 246.136 48.5085C205.054 87.615 155.772 105.829 91.0381 105.829C82.6781 105.829 75.9005 112.464 75.9005 120.648C75.9005 131.096 75.6906 141.898 75.4666 153.331C73.3917 259.704 70.5499 405.387 251.73 466.866C253.337 467.412 255.012 467.684 256.687 467.684C258.363 467.684 260.04 467.412 261.644 466.866C442.839 405.385 440.001 259.698 437.926 153.323Z" fill="#222222"/>
<path d="M257 121.506V71L189.5 138.342L257 205.683V155.177C312.688 155.177 358.25 200.633 358.25 256.19C358.25 273.025 353.187 289.86 346.438 303.329L371.75 328.582C383.562 306.696 392 283.126 392 256.19C392 182.114 331.25 121.506 257 121.506ZM257 357.202C201.312 357.202 155.75 311.746 155.75 256.19C155.75 239.354 160.813 222.519 167.562 209.05L142.25 183.797C130.437 205.683 122 229.253 122 256.19C122 330.265 182.75 390.873 257 390.873V441.379L324.5 374.037L257 306.696V357.202Z" fill="#EEF21D"/>
</svg>
