<svg width="512" height="512" viewBox="0 0 512 512" fill="none" xmlns="http://www.w3.org/2000/svg">
<mask id="path-2-inside-1" fill="white">
<path d="M475.605 131.83C475.336 118.007 475.079 104.948 475.079 92.3151C475.079 82.4178 466.853 74.3939 456.701 74.3939C378.107 74.3939 318.267 52.3674 268.388 5.07441C261.252 -1.69266 249.898 -1.69027 242.765 5.07441C192.89 52.3674 133.061 74.3939 54.4708 74.3939C44.3215 74.3939 36.0933 82.4178 36.0933 92.3151C36.0933 104.951 35.8384 118.014 35.5665 131.84C33.0475 260.481 29.5974 436.661 249.557 511.011C251.507 511.67 253.541 512 255.575 512C257.609 512 259.645 511.67 261.593 511.011C481.57 436.659 478.124 260.474 475.605 131.83Z"/>
</mask>
<path d="M475.605 131.83C475.336 118.007 475.079 104.948 475.079 92.3151C475.079 82.4178 466.853 74.3939 456.701 74.3939C378.107 74.3939 318.267 52.3674 268.388 5.07441C261.252 -1.69266 249.898 -1.69027 242.765 5.07441C192.89 52.3674 133.061 74.3939 54.4708 74.3939C44.3215 74.3939 36.0933 82.4178 36.0933 92.3151C36.0933 104.951 35.8384 118.014 35.5665 131.84C33.0475 260.481 29.5974 436.661 249.557 511.011C251.507 511.67 253.541 512 255.575 512C257.609 512 259.645 511.67 261.593 511.011C481.57 436.659 478.124 260.474 475.605 131.83Z" fill="white" stroke="#38AB43" stroke-opacity="0.8" stroke-width="48" stroke-linecap="square" stroke-linejoin="round" stroke-dasharray="80 180" mask="url(#path-2-inside-1)"/>
<path fill-rule="evenodd" clip-rule="evenodd" d="M137 228.566L137.003 228.571L217.093 171.609V201.971L158.351 243.751L246.444 306.409V352.717L137 274.871V228.566ZM374.561 228.566L374.555 228.571L294.468 171.609V201.971L353.21 243.751L265.114 306.409V352.717L374.561 274.871V228.566ZM272.557 159H239.006V241.828L220.053 228.344L198.448 243.71L255.78 284.49L313.115 243.71L291.51 228.344L272.557 241.828V159Z" fill="#FF872C" fill-opacity="0.8"/>
</svg>
