<svg width="512" height="512" viewBox="0 0 512 512" fill="none" xmlns="http://www.w3.org/2000/svg">
<path d="M475.605 131.83C475.336 118.007 475.079 104.948 475.079 92.3151C475.079 82.4178 466.853 74.3938 456.701 74.3938C378.107 74.3938 318.267 52.3674 268.388 5.07441C261.252 -1.69266 249.898 -1.69027 242.765 5.07441C192.89 52.3674 133.061 74.3938 54.4708 74.3938C44.3215 74.3938 36.0933 82.4178 36.0933 92.3151C36.0933 104.951 35.8384 118.014 35.5665 131.84C33.0475 260.481 29.5974 436.661 249.557 511.011C251.507 511.67 253.541 512 255.575 512C257.609 512 259.645 511.67 261.593 511.011C481.57 436.659 478.124 260.474 475.605 131.83Z" fill="#38AB43"/>
<path d="M437.926 153.323C437.704 141.892 437.492 131.094 437.492 120.648C437.492 112.464 430.717 105.829 422.355 105.829C357.617 105.829 308.327 87.615 267.241 48.5085C261.364 42.9128 252.011 42.9148 246.136 48.5085C205.054 87.615 155.772 105.829 91.0381 105.829C82.6781 105.829 75.9005 112.464 75.9005 120.648C75.9005 131.096 75.6906 141.898 75.4666 153.331C73.3917 259.704 70.5499 405.387 251.73 466.866C253.337 467.412 255.012 467.684 256.687 467.684C258.363 467.684 260.04 467.412 261.644 466.866C442.839 405.385 440.001 259.698 437.926 153.323Z" fill="#222222"/>
<path fill-rule="evenodd" clip-rule="evenodd" d="M134.675 229.628L134.678 229.634L214.767 172.671V203.034L156.026 244.814L244.119 307.471V353.779L134.675 275.934V229.628ZM372.235 229.628L372.23 229.634L292.143 172.671V203.034L350.885 244.814L262.788 307.471V353.779L372.235 275.934V229.628ZM270.232 160.062H236.681V242.89L217.728 229.407L196.123 244.773L253.455 285.553L310.79 244.773L289.185 229.407L270.232 242.89V160.062Z" fill="#FF872C"/>
</svg>
